<svg width="89" height="26" viewBox="0 0 89 26" fill="none" xmlns="http://www.w3.org/2000/svg">
<rect x="0.5" y="0.5" width="88" height="25" stroke="white"/>
<path d="M44.1181 19.9994L44.1041 20C44.0606 19.9991 44.0183 19.9862 43.9818 19.9627L43.9824 19.9632C43.8356 19.8483 43.8894 19.5689 43.9514 19.2451C44.0226 18.979 44.042 18.7018 44.0087 18.4284L44.0099 18.4389C43.9825 18.302 43.9119 18.1774 43.8083 18.0834C43.7047 17.9894 43.5737 17.9311 43.4344 17.9168H43.4315C42.4776 17.8139 41.5475 17.5534 40.6793 17.1462L40.7325 17.1683C40.3574 16.9953 39.9971 16.792 39.6552 16.5605L39.6827 16.578C39.3591 16.3617 39.0541 16.119 38.7709 15.8523L38.7744 15.8552C38.5054 15.602 38.2615 15.3286 38.0428 15.035L38.0311 15.018C37.8212 14.7361 37.6392 14.4344 37.4878 14.1173L37.4732 14.0841C37.1593 13.4298 36.9976 12.7133 37 11.988C37 11.5598 37.055 11.1445 37.1591 10.7484L37.1515 10.7822C37.2546 10.3817 37.4058 9.99502 37.6018 9.63066L37.5884 9.65807C37.7848 9.29315 38.0197 8.95015 38.289 8.63485L38.2826 8.64243C38.5546 8.32156 38.8568 8.02737 39.185 7.76388L39.1979 7.75396C39.5333 7.48584 39.8916 7.2475 40.2687 7.04167L40.3073 7.02242C40.6968 6.81054 41.1035 6.63179 41.5232 6.48806L41.5811 6.47056C42.0224 6.31826 42.4759 6.20389 42.9367 6.12871L42.9888 6.1217C44.0081 5.95693 45.0477 5.95949 46.0662 6.12929L46.0112 6.1217C46.5505 6.21038 47.0242 6.33172 47.4815 6.48923L47.4189 6.47056C47.9143 6.63857 48.3348 6.82525 48.7354 7.04401L48.6927 7.02242C49.115 7.25169 49.4782 7.49378 49.8168 7.76505L49.8022 7.75396C50.1402 8.02465 50.4396 8.31575 50.7098 8.6331L50.7174 8.64243C50.9718 8.93995 51.2011 9.27305 51.3935 9.62891L51.4087 9.65924C51.5847 9.98068 51.7351 10.354 51.8397 10.7461L51.8479 10.7816C51.9499 11.1759 52.001 11.5815 52 11.9886C52.0011 12.5683 51.8979 13.1435 51.6953 13.6868L51.7064 13.653C51.5085 14.1923 51.2269 14.6972 50.8718 15.1493L50.8806 15.1376C50.8378 15.1985 50.7911 15.2566 50.7408 15.3115L50.742 15.3103L50.7373 15.3156C50.487 15.6119 50.2203 15.8773 49.932 16.1189L49.922 16.127C48.907 17.0476 47.8282 17.8958 46.6937 18.6653L46.592 18.7306C46.1349 19.0456 45.6615 19.3363 45.1737 19.6016L45.0872 19.6447C44.9134 19.7379 44.7346 19.8213 44.5515 19.8944L44.5164 19.9067C44.3916 19.9601 44.2584 19.9915 44.1228 19.9994H44.1193H44.1181ZM47.6172 10.2327C47.5137 10.233 47.4145 10.2742 47.3413 10.3472C47.2681 10.4202 47.2268 10.5191 47.2265 10.6224V13.5147C47.2268 13.618 47.2681 13.7169 47.3413 13.7899C47.4145 13.8629 47.5137 13.9041 47.6172 13.9044H49.1296C49.2331 13.9041 49.3323 13.8629 49.4055 13.7899C49.4787 13.7169 49.52 13.618 49.5203 13.5147V13.482C49.52 13.3788 49.4787 13.2798 49.4055 13.2068C49.3323 13.1338 49.2331 13.0927 49.1296 13.0924H48.04V12.4757H49.129C49.2325 12.4754 49.3317 12.4343 49.4049 12.3613C49.4781 12.2882 49.5194 12.1893 49.5197 12.086V12.0534C49.5194 11.9501 49.4781 11.8512 49.4049 11.7782C49.3317 11.7052 49.2325 11.664 49.129 11.6637H48.04V11.0459H49.129C49.2325 11.0456 49.3317 11.0044 49.4049 10.9314C49.4781 10.8584 49.5194 10.7595 49.5197 10.6562V10.623C49.5194 10.5197 49.4781 10.4208 49.4049 10.3478C49.3317 10.2747 49.2325 10.2336 49.129 10.2333L47.6172 10.2327ZM44.1251 10.2257C44.0216 10.226 43.9224 10.2672 43.8492 10.3402C43.776 10.4132 43.7348 10.5121 43.7345 10.6154V13.5077C43.7348 13.611 43.776 13.7099 43.8492 13.7829C43.9224 13.8559 44.0216 13.8971 44.1251 13.8974H44.1579C44.2614 13.8971 44.3606 13.8559 44.4338 13.7829C44.507 13.7099 44.5482 13.611 44.5485 13.5077V11.7774L45.972 13.7171L46.0013 13.7568L46.0007 13.7562C46.0382 13.8068 46.0896 13.8455 46.1487 13.8676L46.151 13.8682C46.1949 13.8869 46.2458 13.8974 46.299 13.8974H46.3335C46.3978 13.8974 46.4612 13.8814 46.5177 13.8507L46.5154 13.8519C46.5516 13.8351 46.5841 13.8111 46.6107 13.7813V13.7807C46.6466 13.7449 46.675 13.7023 46.6944 13.6554C46.7138 13.6086 46.7237 13.5584 46.7236 13.5077V10.6154C46.7233 10.5121 46.682 10.4132 46.6088 10.3402C46.5356 10.2672 46.4364 10.226 46.3329 10.2257H46.2984C46.1949 10.226 46.0957 10.2672 46.0225 10.3402C45.9493 10.4132 45.908 10.5121 45.9077 10.6154V12.3136L44.4959 10.4229C44.4621 10.3627 44.4128 10.3126 44.3533 10.2775C44.2937 10.2425 44.2259 10.2238 44.1567 10.2234L44.1251 10.2257ZM42.7601 10.2257C42.6566 10.226 42.5574 10.2672 42.4842 10.3402C42.411 10.4132 42.3697 10.5121 42.3694 10.6154V13.5077C42.3697 13.611 42.411 13.7099 42.4842 13.7829C42.5574 13.8559 42.6566 13.8971 42.7601 13.8974H42.7929C42.8964 13.8971 42.9956 13.8559 43.0688 13.7829C43.142 13.7099 43.1832 13.611 43.1835 13.5077V10.6154C43.1832 10.5121 43.142 10.4132 43.0688 10.3402C42.9956 10.2672 42.8964 10.226 42.7929 10.2257H42.7601ZM40.1506 10.2257C40.047 10.226 39.9478 10.2672 39.8746 10.3402C39.8015 10.4132 39.7602 10.5121 39.7599 10.6154V13.5077C39.7602 13.611 39.8015 13.7099 39.8746 13.7829C39.9478 13.8559 40.047 13.8971 40.1506 13.8974H41.6618C41.7653 13.8971 41.8645 13.8559 41.9377 13.7829C42.0109 13.7099 42.0521 13.611 42.0525 13.5077V13.4785C42.0521 13.3753 42.0109 13.2763 41.9377 13.2033C41.8645 13.1303 41.7653 13.0892 41.6618 13.0889H40.5734V10.616C40.5731 10.5127 40.5318 10.4138 40.4586 10.3408C40.3854 10.2677 40.2862 10.2266 40.1827 10.2263L40.1506 10.2257Z" fill="white"/>
</svg>
