<svg width="89" height="26" viewBox="0 0 89 26" fill="none" xmlns="http://www.w3.org/2000/svg">
<rect x="0.5" y="0.5" width="88" height="25" stroke="white"/>
<rect x="39.2856" y="7.85706" width="11.4286" height="10.2857" fill="white"/>
<path d="M35.8571 1C34.28 1 33 2.28 33 3.85714V22.1429C33 23.72 34.28 25 35.8571 25H54.1429C55.72 25 57 23.72 57 22.1429V3.85714C57 2.28 55.72 1 54.1429 1H35.8571ZM39.2511 7.85714H44.1261C45.6118 7.85714 46.8114 8.93741 46.8114 10.2746C46.8114 11.3603 46.0056 12.2686 44.9085 12.5714C46.2571 12.8 47.2857 13.9485 47.2857 15.3371C47.2857 16.8856 46.0003 18.1429 44.4174 18.1429H39.2511V7.85714ZM48.394 7.85714H50.7143V14.7143H48.394V7.85714ZM41.692 10.1138V12.1998H43.0681C43.6624 12.1998 44.1484 11.7313 44.1484 11.1484C44.1484 10.6113 43.7259 10.171 43.183 10.1138H41.692ZM41.692 14.029V16.3203H43.4063C44.0577 16.3203 44.5826 15.806 44.5826 15.1775C44.5826 14.5432 44.0577 14.029 43.4063 14.029H41.692ZM49.5547 15.8571C50.1947 15.8571 50.7143 16.3714 50.7143 17C50.7143 17.6286 50.1947 18.1429 49.5547 18.1429C48.9147 18.1429 48.394 17.6286 48.394 17C48.394 16.3714 48.9147 15.8571 49.5547 15.8571Z" fill="#0A0A0A"/>
</svg>
