<svg width="89" height="26" viewBox="0 0 89 26" fill="none" xmlns="http://www.w3.org/2000/svg">
<rect x="0.5" y="0.5" width="88" height="25" stroke="white"/>
<path d="M49.8023 4.1353C48.88 4.0426 47.9531 3.99746 47.0256 4.00011C43.9509 4.00011 42.04 5.85641 42.04 8.84452V10.8733H39.4571C39.3359 10.8733 39.2196 10.9189 39.1339 11.0002C39.0482 11.0815 39 11.1917 39 11.3066V14.6431C39 14.758 39.0482 14.8682 39.1339 14.9495C39.2196 15.0307 39.3359 15.0764 39.4571 15.0764H42.04V21.7667C42.04 21.8816 42.0882 21.9918 42.1739 22.0731C42.2596 22.1544 42.3759 22.2 42.4971 22.2H46.1342C46.2554 22.2 46.3717 22.1544 46.4574 22.0731C46.5432 21.9918 46.5913 21.8816 46.5913 21.7667V15.0764H49.1659C49.2769 15.0764 49.3841 15.0382 49.4676 14.9688C49.551 14.8995 49.605 14.8037 49.6194 14.6994L50.0738 11.3629C50.0823 11.3018 50.0769 11.2396 50.058 11.1806C50.039 11.1216 50.007 11.0671 49.9641 11.0207C49.9212 10.9744 49.8683 10.9372 49.809 10.9118C49.7497 10.8864 49.6854 10.8732 49.6203 10.8733H46.5913V9.17557C46.5913 8.33494 46.7696 7.98396 47.8786 7.98396H49.7429C49.8641 7.98396 49.9804 7.93831 50.0661 7.85705C50.1518 7.77579 50.2 7.66557 50.2 7.55065V4.56515C50.2001 4.45995 50.1597 4.35832 50.0865 4.27923C50.0134 4.20013 49.9123 4.14898 49.8023 4.1353ZM49.2857 7.11648L47.8777 7.11734C45.9056 7.11734 45.677 8.29248 45.677 9.17557V11.3075C45.677 11.4222 45.7251 11.5323 45.8106 11.6135C45.8961 11.6948 46.0122 11.7405 46.1333 11.7408H49.101L48.7637 14.2106H46.1342C46.0129 14.2106 45.8967 14.2563 45.8109 14.3375C45.7252 14.4188 45.677 14.529 45.677 14.6439V21.3325H42.9543V14.6439C42.9543 14.529 42.9061 14.4188 42.8204 14.3375C42.7347 14.2563 42.6184 14.2106 42.4971 14.2106H39.9152V11.7408H42.4971C42.6184 11.7408 42.7347 11.6951 42.8204 11.6138C42.9061 11.5326 42.9543 11.4224 42.9543 11.3075V8.84452C42.9543 6.35385 44.4766 4.86673 47.0256 4.86673C47.9481 4.86673 48.781 4.91439 49.2857 4.95599V7.11648Z" fill="white"/>
</svg>
