<svg width="695" height="570" viewBox="0 0 695 570" fill="none" xmlns="http://www.w3.org/2000/svg">
<g opacity="0.7">
<path d="M534.32 569.605C524.003 569.571 513.688 568.547 503.654 566.559C493.398 564.532 483.299 561.472 473.637 557.464C463.996 553.469 454.704 548.494 446.015 542.677C437.35 536.879 429.216 530.198 421.839 522.821C414.464 515.445 407.783 507.31 401.983 498.646C396.167 489.956 391.191 480.663 387.196 471.024C383.188 461.362 380.129 451.262 378.102 441.007C376.084 430.824 375.059 420.35 375.056 409.877C375.059 399.403 376.084 388.929 378.103 378.746C380.13 368.491 383.19 358.391 387.198 348.729C391.193 339.091 396.168 329.797 401.985 321.107C407.785 312.443 414.464 304.309 421.841 296.932C429.217 289.555 437.352 282.876 446.016 277.076C454.706 271.26 464 266.284 473.638 262.289C483.3 258.281 493.4 255.221 503.655 253.194C513.846 251.177 524.32 250.152 534.785 250.147C540.729 250.142 546.657 249.562 552.404 248.424C558.166 247.285 563.839 245.566 569.261 243.318C574.685 241.069 579.919 238.268 584.817 234.988C589.716 231.711 594.317 227.933 598.495 223.757C602.669 219.579 606.448 214.978 609.726 210.08C613.005 205.182 615.807 199.948 618.055 194.524C620.303 189.103 622.022 183.432 623.162 177.666C624.3 171.919 624.88 165.991 624.884 160.048C624.88 154.106 624.3 148.178 623.162 142.431C622.021 136.666 620.303 130.993 618.055 125.573C615.807 120.15 613.005 114.916 609.726 110.018C606.448 105.119 602.671 100.518 598.495 96.3404C594.317 92.1643 589.716 88.3854 584.817 85.1092C579.918 81.8298 574.684 79.0282 569.261 76.7801C563.838 74.5304 558.166 72.8126 552.404 71.6731C546.657 70.5351 540.729 69.9553 534.785 69.9507H160.045C154.101 69.9553 148.173 70.5351 142.428 71.6731C136.662 72.8142 130.991 74.532 125.57 76.7801C120.146 79.0282 114.913 81.8298 110.014 85.1092C105.118 88.3854 100.516 92.1643 96.3372 96.3404C92.1626 100.518 88.3838 105.119 85.106 110.018C81.8281 114.916 79.0249 120.15 76.7768 125.573C74.5272 130.997 72.8094 136.669 71.6699 142.431C70.5613 148.028 69.9831 153.797 69.9491 159.586H70.2707C70.3047 153.819 70.8814 148.072 71.9853 142.495C73.1233 136.748 74.8349 131.096 77.0753 125.697C79.3156 120.292 82.108 115.077 85.3734 110.197C88.642 105.314 92.4069 100.73 96.5645 96.5692C100.725 92.4116 105.31 88.6467 110.192 85.3782C115.072 82.1127 120.287 79.3204 125.694 77.08C131.093 74.8412 136.744 73.1281 142.491 71.9901C148.218 70.8568 154.125 70.2785 160.046 70.2738H534.787C540.71 70.2785 546.617 70.8568 552.342 71.9901C558.088 73.1281 563.74 74.8396 569.139 77.08C574.545 79.3204 579.76 82.1127 584.64 85.3782C589.522 88.6467 594.108 92.4116 598.267 96.5692C602.425 100.73 606.191 105.316 609.458 110.197C612.724 115.077 615.516 120.292 617.757 125.699C619.995 131.098 621.709 136.749 622.846 142.496C623.98 148.223 624.558 154.129 624.563 160.051C624.558 165.973 623.98 171.879 622.846 177.608C621.709 183.355 619.997 189.006 617.757 194.405C615.516 199.81 612.724 205.027 609.458 209.905C606.191 214.788 602.425 219.372 598.267 223.533C594.107 227.691 589.522 231.455 584.64 234.724C579.76 237.99 574.545 240.782 569.138 243.022C563.739 245.261 558.087 246.974 552.34 248.112C546.613 249.245 540.707 249.824 534.785 249.828C524.296 249.831 513.801 250.86 503.593 252.882C493.313 254.914 483.193 257.98 473.516 261.993C463.862 265.995 454.549 270.981 445.838 276.812C437.157 282.622 429.006 289.316 421.613 296.706C414.223 304.098 407.528 312.25 401.719 320.931C395.889 329.642 390.902 338.955 386.901 348.609C382.887 358.288 379.821 368.407 377.789 378.686C375.767 388.894 374.74 399.389 374.736 409.878C374.739 420.367 375.767 430.863 377.788 441.07C379.819 451.351 382.885 461.47 386.899 471.148C390.901 480.802 395.887 490.114 401.718 498.825C407.528 507.507 414.221 515.658 421.612 523.049C429.004 530.439 437.154 537.133 445.837 542.943C454.548 548.774 463.86 553.76 473.515 557.761C483.192 561.775 493.311 564.841 503.592 566.873C513.65 568.864 523.986 569.891 534.32 569.925V569.603V569.605Z" fill="url(#paint0_linear_558_778)"/>
<path d="M534.324 559.612C524.662 559.578 514.998 558.618 505.596 556.757C495.985 554.856 486.523 551.99 477.469 548.236C468.434 544.489 459.723 539.826 451.577 534.373C443.453 528.937 435.826 522.673 428.907 515.756C421.99 508.837 415.726 501.21 410.29 493.086C404.837 484.941 400.173 476.23 396.427 467.194C392.673 458.14 389.806 448.678 387.906 439.067C386.014 429.515 385.054 419.693 385.049 409.875C385.052 400.057 386.014 390.236 387.906 380.684C389.805 371.075 392.673 361.611 396.427 352.556C400.172 343.522 404.837 334.811 410.29 326.665C415.726 318.541 421.99 310.914 428.907 303.995C435.824 297.077 443.452 290.814 451.577 285.378C459.722 279.924 468.433 275.261 477.469 271.515C486.523 267.761 495.985 264.894 505.596 262.994C515.15 261.102 524.969 260.141 534.787 260.137C541.379 260.132 547.959 259.489 554.345 258.224C560.749 256.958 567.056 255.047 573.09 252.545C579.116 250.048 584.932 246.934 590.379 243.288C595.816 239.652 600.924 235.457 605.563 230.82C610.198 226.182 614.393 221.073 618.031 215.637C621.677 210.19 624.79 204.373 627.287 198.348C629.789 192.313 631.7 186.007 632.966 179.602C634.23 173.217 634.874 166.636 634.879 160.044C634.874 153.452 634.231 146.872 632.966 140.486C631.7 134.082 629.789 127.775 627.287 121.741C624.79 115.717 621.677 109.9 618.031 104.452C614.393 99.0139 610.198 93.9054 605.563 89.2685C600.924 84.6331 595.816 80.4384 590.379 76.8003C584.932 73.1545 579.116 70.0406 573.09 67.5435C567.056 65.0418 560.749 63.1308 554.345 61.8645C547.959 60.6013 541.379 59.9565 534.786 59.9519H160.045C153.453 59.9565 146.872 60.5998 140.488 61.8645C134.084 63.1308 127.777 65.0418 121.743 67.5435C115.719 70.0406 109.902 73.1545 104.453 76.8003C99.0171 80.4384 93.9087 84.6331 89.2702 89.2685C84.6349 93.9069 80.4402 99.0154 76.8021 104.452C73.1578 109.894 70.0438 115.712 67.5452 121.741C65.0436 127.775 63.1325 134.082 61.8662 140.486C60.6324 146.722 59.9892 153.143 59.9552 159.58H60.2768C60.3108 153.165 60.9509 146.764 62.1816 140.548C63.4464 134.161 65.3513 127.874 67.8437 121.863C70.3345 115.853 73.4392 110.055 77.0695 104.631C80.6968 99.2087 84.8791 94.1157 89.4975 89.4958C94.1189 84.8774 99.2104 80.6951 104.633 77.0678C110.057 73.4359 115.855 70.3328 121.865 67.8419C127.876 65.3495 134.161 63.4446 140.55 62.1799C146.915 60.9198 153.474 60.2782 160.045 60.2735H534.786C541.357 60.2782 547.916 60.9198 554.281 62.1799C560.669 63.4446 566.955 65.3495 572.967 67.8419C578.977 70.3328 584.775 73.4374 590.198 77.0678C595.621 80.6966 600.714 84.8774 605.334 89.4958C609.952 94.1157 614.133 99.2087 617.762 104.631C621.394 110.055 624.497 115.853 626.988 121.863C629.48 127.873 631.385 134.159 632.65 140.548C633.91 146.914 634.551 153.472 634.556 160.044C634.551 166.615 633.91 173.173 632.65 179.539C631.385 185.928 629.48 192.214 626.988 198.224C624.497 204.234 621.392 210.032 617.762 215.456C614.133 220.88 609.952 225.971 605.334 230.591C600.712 235.21 595.621 239.39 590.198 243.019C584.775 246.651 578.977 249.754 572.967 252.247C566.957 254.739 560.67 256.644 554.281 257.909C547.916 259.169 541.357 259.81 534.786 259.815C524.946 259.818 515.103 260.781 505.533 262.679C495.899 264.583 486.416 267.456 477.345 271.218C468.295 274.967 459.566 279.641 451.399 285.109C443.26 290.554 435.617 296.832 428.681 303.766C421.747 310.702 415.469 318.346 410.024 326.484C404.557 334.65 399.883 343.381 396.133 352.43C392.372 361.499 389.497 370.983 387.594 380.617C385.698 390.188 384.735 400.031 384.73 409.871C384.734 419.71 385.697 429.553 387.594 439.124C389.499 448.758 392.372 458.242 396.133 467.312C399.883 476.361 404.557 485.091 410.024 493.259C415.471 501.4 421.748 509.044 428.681 515.977C435.617 522.911 443.26 529.189 451.399 534.634C459.567 540.101 468.297 544.775 477.345 548.525C486.415 552.287 495.899 555.161 505.533 557.064C514.953 558.93 524.637 559.894 534.322 559.926V559.605L534.324 559.612Z" fill="url(#paint1_linear_558_778)"/>
<path d="M534.318 549.62C525.305 549.586 516.296 548.691 507.531 546.954C498.56 545.181 489.732 542.506 481.291 539.004C472.863 535.51 464.735 531.159 457.131 526.069C449.547 520.994 442.427 515.147 435.969 508.69C429.511 502.23 423.663 495.11 418.59 487.526C413.502 479.925 409.149 471.797 405.655 463.368C402.155 454.927 399.48 446.099 397.705 437.128C395.939 428.213 395.042 419.044 395.039 409.877C395.042 400.71 395.941 391.541 397.705 382.626C399.48 373.655 402.155 364.827 405.655 356.386C409.149 347.957 413.502 339.829 418.59 332.228C423.665 324.644 429.511 317.524 435.969 311.066C442.429 304.607 449.549 298.761 457.131 293.687C464.733 288.597 472.863 284.246 481.291 280.752C489.732 277.251 498.56 274.577 507.531 272.802C516.446 271.036 525.615 270.139 534.782 270.136C542.024 270.131 549.255 269.423 556.278 268.033C563.335 266.637 570.277 264.533 576.913 261.782C583.544 259.033 589.944 255.607 595.934 251.598C601.911 247.598 607.527 242.987 612.624 237.893C617.72 232.795 622.331 227.179 626.329 221.202C630.339 215.212 633.765 208.814 636.512 202.181C639.264 195.545 641.367 188.603 642.763 181.546C644.153 174.524 644.86 167.291 644.866 160.05C644.862 152.809 644.153 145.576 642.763 138.554C641.367 131.497 639.263 124.555 636.512 117.919C633.765 111.287 630.339 104.888 626.329 98.8982C622.33 92.9208 617.719 87.3051 612.624 82.2075C607.528 77.1129 601.913 72.5023 595.934 68.5024C589.944 64.4932 583.544 61.0669 576.913 58.3194C570.278 55.5673 563.335 53.4645 556.278 52.0684C549.255 50.6784 542.022 49.9718 534.782 49.9656H160.041C152.799 49.9702 145.568 50.6784 138.545 52.0684C131.488 53.4645 124.546 55.5688 117.91 58.3194C111.279 61.0669 104.879 64.4932 98.8893 68.5024C92.9104 72.5023 87.2947 77.1129 82.1986 82.2075C77.104 87.3036 72.4934 92.9208 68.4935 98.8982C64.4843 104.888 61.0581 111.287 58.3106 117.919C55.5584 124.553 53.4557 131.497 52.0595 138.554C50.6989 145.427 49.9923 152.5 49.9583 159.586H50.2799C50.3139 152.522 51.0189 145.468 52.3749 138.616C53.7664 131.581 55.8646 124.66 58.609 118.043C61.3519 111.427 64.7673 105.046 68.7626 99.0775C72.7532 93.1156 77.3499 87.5154 82.4274 82.4347C87.5081 77.3572 93.1067 72.759 99.0702 68.7699C105.038 64.7746 111.419 61.3592 118.035 58.6163C124.653 55.8719 131.575 53.7753 138.608 52.3822C145.611 50.9969 152.822 50.2918 160.043 50.2856H534.783C542.004 50.2903 549.215 50.9953 556.218 52.3822C563.253 53.7738 570.173 55.8719 576.791 58.6163C583.407 61.3592 589.788 64.7746 595.756 68.7699C601.719 72.7605 607.318 77.3587 612.399 82.4347C617.476 87.5154 622.074 93.114 626.065 99.0775C630.06 105.046 633.476 111.427 636.219 118.043C638.963 124.66 641.06 131.582 642.453 138.616C643.838 145.618 644.545 152.829 644.549 160.05C644.545 167.271 643.84 174.482 642.453 181.484C641.061 188.519 638.963 195.44 636.219 202.057C633.477 208.673 630.06 215.053 626.065 221.022C622.074 226.986 617.476 232.585 612.4 237.665C607.319 242.743 601.721 247.341 595.757 251.33C589.789 255.325 583.408 258.741 576.792 261.484C570.175 264.228 563.253 266.325 556.219 267.718C549.217 269.103 542.005 269.808 534.785 269.814C525.593 269.817 516.404 270.717 507.471 272.488C498.477 274.266 489.628 276.947 481.171 280.455C472.724 283.955 464.577 288.317 456.955 293.419C449.359 298.502 442.221 304.362 435.743 310.837C429.268 317.315 423.408 324.452 418.326 332.048C413.223 339.669 408.862 347.818 405.361 356.264C401.853 364.722 399.172 373.57 397.392 382.564C395.624 391.5 394.724 400.688 394.721 409.879C394.724 419.067 395.624 428.258 397.392 437.191C399.172 446.185 401.853 455.036 405.361 463.491C408.862 471.938 413.223 480.086 418.326 487.707C423.408 495.303 429.269 502.441 435.743 508.919C442.223 515.394 449.359 521.256 456.955 526.336C464.576 531.439 472.724 535.8 481.171 539.301C489.626 542.809 498.475 545.49 507.471 547.27C516.254 549.009 525.285 549.907 534.319 549.941V549.62H534.318Z" fill="url(#paint2_linear_558_778)"/>
<path d="M534.32 539.625C525.95 539.591 517.594 538.758 509.472 537.15C501.146 535.503 492.952 533.02 485.121 529.772C477.298 526.528 469.752 522.488 462.694 517.764C455.653 513.051 449.04 507.621 443.038 501.622C437.039 495.62 431.609 489.007 426.896 481.966C422.173 474.908 418.133 467.363 414.889 459.539C411.64 451.708 409.159 443.515 407.511 435.189C405.873 426.917 405.04 418.399 405.035 409.877C405.04 401.353 405.873 392.837 407.511 384.563C409.157 376.237 411.64 368.044 414.889 360.213C418.133 352.389 422.173 344.844 426.896 337.786C431.609 330.745 437.039 324.132 443.038 318.13C449.04 312.131 455.653 306.701 462.694 301.988C469.752 297.264 477.298 293.224 485.121 289.981C492.954 286.732 501.146 284.251 509.472 282.602C517.743 280.965 526.26 280.132 534.784 280.127C542.674 280.122 550.559 279.351 558.22 277.836C565.92 276.311 573.498 274.015 580.743 271.012C587.98 268.013 594.961 264.274 601.494 259.902C608.009 255.542 614.132 250.515 619.692 244.958C625.247 239.398 630.275 233.275 634.636 226.762C639.008 220.229 642.747 213.247 645.746 206.009C648.75 198.767 651.046 191.189 652.569 183.488C654.085 175.827 654.856 167.941 654.861 160.051C654.856 152.161 654.085 144.277 652.569 136.616C651.045 128.915 648.749 121.337 645.746 114.095C642.747 106.858 639.008 99.8751 634.636 93.3426C630.277 86.8287 625.249 80.7059 619.692 75.1444C614.132 69.5875 608.009 64.561 601.495 60.2009C594.963 55.8284 587.982 52.0898 580.744 49.0902C573.499 46.0861 565.922 43.79 558.222 42.2671C550.561 40.7518 542.675 39.9803 534.785 39.9741H160.044C152.154 39.9788 144.269 40.7503 136.608 42.2671C128.907 43.7916 121.329 46.0876 114.087 49.0902C106.849 52.0898 99.8668 55.8284 93.3343 60.2009C86.8203 64.5595 80.6975 69.5875 75.136 75.1444C69.5792 80.7044 64.5526 86.8271 60.1925 93.3411C55.82 99.8735 52.0814 106.856 49.0819 114.092C46.0777 121.337 43.7816 128.915 42.2587 136.615C40.7728 144.126 40.0028 151.852 39.9673 159.587H40.2889C40.3229 151.869 41.0913 144.163 42.5741 136.678C44.0939 128.997 46.3838 121.441 49.3802 114.217C52.372 107 56.0998 100.036 60.46 93.522C64.8093 87.022 69.8235 80.9146 75.3634 75.3717C80.9063 69.8318 87.0135 64.8177 93.5136 60.4684C100.029 56.1082 106.991 52.3804 114.21 49.3886C121.434 46.3922 128.99 44.1023 136.671 42.5825C144.306 41.0703 152.17 40.3019 160.044 40.2957H534.785C542.66 40.3004 550.525 41.0703 558.16 42.5825C565.841 44.1023 573.397 46.3922 580.621 49.3886C587.84 52.3804 594.802 56.1082 601.316 60.4684C607.816 64.8177 613.923 69.8334 619.466 75.3717C625.006 80.9146 630.02 87.0204 634.37 93.522C638.73 100.037 642.458 107 645.449 114.217C648.446 121.441 650.736 128.998 652.256 136.678C653.768 144.313 654.536 152.177 654.542 160.051C654.538 167.926 653.768 175.79 652.256 183.426C650.736 191.106 648.446 198.663 645.449 205.887C642.458 213.104 638.73 220.068 634.37 226.584C630.02 233.084 625.005 239.191 619.466 244.734C613.923 250.274 607.816 255.288 601.316 259.637C594.801 263.997 587.838 267.725 580.621 270.717C573.397 273.713 565.84 276.003 558.16 277.523C550.525 279.035 542.66 279.804 534.787 279.808C526.24 279.813 517.703 280.648 509.411 282.29C501.064 283.941 492.85 286.431 484.999 289.685C477.155 292.937 469.592 296.986 462.517 301.722C455.461 306.442 448.831 311.888 442.811 317.904C436.795 323.925 431.351 330.553 426.63 337.61C421.894 344.685 417.844 352.25 414.594 360.092C411.337 367.944 408.85 376.157 407.198 384.505C405.556 392.797 404.721 401.334 404.717 409.88C404.721 418.426 405.556 426.963 407.198 435.254C408.85 443.601 411.339 451.815 414.594 459.666C417.845 467.51 421.894 475.073 426.63 482.149C431.351 489.204 436.796 495.834 442.812 501.854C448.832 507.87 455.461 513.314 462.517 518.035C469.593 522.771 477.157 526.822 484.999 530.072C492.85 533.328 501.064 535.816 509.411 537.467C517.552 539.079 525.93 539.913 534.323 539.948V539.627L534.32 539.625Z" fill="url(#paint3_linear_558_778)"/>
<path d="M534.322 529.632C526.602 529.598 518.897 528.83 511.412 527.347C503.733 525.827 496.175 523.537 488.951 520.541C481.734 517.549 474.77 513.821 468.256 509.461C461.756 505.112 455.649 500.098 450.106 494.558C444.568 489.015 439.554 482.909 435.203 476.407C430.843 469.893 427.115 462.93 424.123 455.712C421.126 448.489 418.837 440.931 417.317 433.251C415.805 425.616 415.036 417.753 415.03 409.878C415.035 402.004 415.805 394.138 417.317 386.503C418.837 378.824 421.126 371.266 424.123 364.042C427.115 356.825 430.843 349.861 435.203 343.346C439.552 336.846 444.566 330.738 450.106 325.195C455.649 319.656 461.756 314.641 468.256 310.292C474.772 305.932 481.734 302.204 488.951 299.212C496.175 296.216 503.733 293.926 511.412 292.406C519.047 290.894 526.911 290.126 534.786 290.119C543.333 290.115 551.871 289.28 560.161 287.638C568.509 285.987 576.722 283.499 584.573 280.243C592.414 276.993 599.977 272.943 607.056 268.206C614.111 263.485 620.741 258.04 626.761 252.024C632.778 246.005 638.222 239.375 642.942 232.318C647.678 225.243 651.729 217.678 654.979 209.836C658.235 201.984 660.723 193.771 662.374 185.423C664.016 177.133 664.851 168.595 664.856 160.048C664.851 151.502 664.016 142.964 662.374 134.674C660.723 126.326 658.235 118.113 654.979 110.262C651.727 102.42 647.678 94.8545 642.942 87.7793C638.222 80.7242 632.776 74.0943 626.76 68.0736C620.741 62.0575 614.111 56.6135 607.054 51.8931C599.976 47.1557 592.411 43.1063 584.572 39.8563C576.72 36.6001 568.507 34.1124 560.159 32.4611C551.869 30.8191 543.331 29.9841 534.784 29.9795H160.043C151.498 29.9841 142.96 30.8191 134.668 32.4611C126.32 34.1124 118.107 36.6017 110.256 39.8563C102.417 43.1063 94.8515 47.1557 87.7732 51.8931C80.7166 56.6151 74.0882 62.0591 68.0675 68.0751C62.0514 74.0943 56.6074 80.7242 51.887 87.7808C47.1512 94.856 43.1003 102.421 39.8502 110.263C36.594 118.113 34.1063 126.326 32.455 134.676C30.8424 142.818 30.009 151.196 29.9734 159.587H30.2951C30.3291 151.219 31.1624 142.861 32.7704 134.739C34.4171 126.413 36.9002 118.22 40.1487 110.389C43.3925 102.565 47.4325 95.0183 52.156 87.9617C56.8687 80.9205 62.2988 74.3077 68.2979 68.3055C74.3001 62.3064 80.9129 56.8764 87.9541 52.1637C95.0123 47.4402 102.557 43.4001 110.381 40.1563C118.212 36.9078 126.405 34.4262 134.731 32.778C143.003 31.1407 151.519 30.3073 160.043 30.3027H534.784C543.308 30.3073 551.824 31.1407 560.096 32.778C568.422 34.4247 576.615 36.9078 584.446 40.1563C592.271 43.4001 599.817 47.4402 606.873 52.1637C613.914 56.8764 620.527 62.3064 626.53 68.3055C632.527 74.3077 637.959 80.9205 642.671 87.9617C647.395 95.0199 651.435 102.565 654.679 110.389C657.927 118.22 660.409 126.413 662.057 134.739C663.694 143.011 664.528 151.527 664.532 160.051C664.528 168.575 663.694 177.091 662.057 185.365C660.41 193.691 657.927 201.884 654.679 209.715C651.435 217.538 647.395 225.085 642.671 232.142C637.959 239.183 632.527 245.797 626.53 251.798C620.527 257.797 613.914 263.227 606.873 267.94C599.815 272.663 592.27 276.703 584.446 279.947C576.615 283.196 568.422 285.677 560.096 287.326C551.824 288.963 543.308 289.796 534.784 289.801C526.894 289.806 519.009 290.577 511.347 292.092C503.648 293.617 496.068 295.913 488.825 298.915C481.587 301.915 474.606 305.654 468.074 310.026C461.56 314.385 455.437 319.413 449.877 324.97C444.32 330.53 439.292 336.652 434.934 343.166C430.561 349.699 426.822 356.68 423.823 363.917C420.819 371.161 418.523 378.739 417 386.44C415.485 394.101 414.713 401.987 414.707 409.877C414.712 417.767 415.483 425.652 417 433.313C418.524 441.014 420.82 448.592 423.823 455.834C426.822 463.072 430.561 470.054 434.934 476.587C439.294 483.102 444.32 489.225 449.877 494.783C455.437 500.34 461.56 505.368 468.074 509.727C474.606 514.099 481.587 517.837 488.825 520.838C496.07 523.842 503.648 526.138 511.347 527.661C518.859 529.147 526.585 529.917 534.32 529.952V529.631L534.322 529.632Z" fill="url(#paint4_linear_558_778)"/>
<path d="M534.322 519.64C527.258 519.606 520.206 518.901 513.352 517.545C506.318 516.153 499.396 514.055 492.778 511.311C486.162 508.568 479.781 505.152 473.813 501.157C467.85 497.166 462.251 492.568 457.171 487.492C452.093 482.411 447.495 476.813 443.506 470.849C439.51 464.881 436.095 458.5 433.352 451.884C430.608 445.267 428.511 438.345 427.118 431.311C425.733 424.309 425.028 417.097 425.021 409.877C425.026 402.656 425.731 395.445 427.118 388.443C428.51 381.408 430.608 374.487 433.352 367.87C436.095 361.254 439.51 354.873 443.506 348.904C447.496 342.941 452.093 337.342 457.171 332.262C462.251 327.184 467.85 322.586 473.813 318.597C479.781 314.602 486.162 311.185 492.778 308.443C499.396 305.699 506.318 303.602 513.352 302.209C520.354 300.824 527.565 300.119 534.786 300.113C543.975 300.109 553.165 299.21 562.1 297.441C571.096 295.661 579.944 292.98 588.4 289.472C596.847 285.971 604.995 281.61 612.616 276.508C620.212 271.425 627.348 265.565 633.828 259.09C640.304 252.61 646.164 245.473 651.245 237.878C656.347 230.257 660.709 222.111 664.209 213.663C667.718 205.205 670.399 196.357 672.178 187.363C673.947 178.427 674.847 169.239 674.85 160.048C674.847 150.86 673.947 141.669 672.178 132.736C670.399 123.74 667.718 114.891 664.209 106.436C660.709 97.9889 656.347 89.8407 651.245 82.2197C646.164 74.625 640.303 67.488 633.828 61.0081C627.348 54.5328 620.212 48.6729 612.616 43.5907C604.995 38.4884 596.848 34.1267 588.4 30.6262C579.941 27.1165 571.093 24.4354 562.1 22.6589C553.168 20.8886 543.978 19.9902 534.786 19.9856H160.045C150.856 19.9887 141.666 20.8886 132.732 22.6573C123.737 24.437 114.888 27.118 106.432 30.6262C97.9858 34.1267 89.8376 38.4884 82.2166 43.5907C74.6219 48.6729 67.4848 54.5328 61.0049 61.0081C54.5296 67.488 48.6682 74.6235 43.5875 82.2197C38.4852 89.8407 34.1235 97.9874 30.623 106.436C27.1148 114.893 24.4338 123.742 22.6541 132.736C20.9147 141.519 20.0165 150.55 19.9825 159.584H20.3041C20.3381 150.572 21.2333 141.563 22.9681 132.797C24.743 123.827 27.4179 114.998 30.9184 106.558C34.4127 98.128 38.7651 89.9999 43.8535 82.3991C48.9264 74.8167 54.774 67.6967 61.2322 61.2369C67.6921 54.7786 74.8121 48.9311 82.3959 43.8582C89.9968 38.7698 98.1249 34.4174 106.555 30.9231C114.995 27.4226 123.823 24.7478 132.794 22.9728C141.709 21.2071 150.878 20.3103 160.045 20.3072H534.786C543.953 20.3103 553.122 21.2086 562.037 22.9728C571.008 24.7478 579.836 27.4226 588.276 30.9231C596.706 34.4174 604.834 38.7698 612.435 43.8582C620.017 48.9311 627.137 54.7786 633.597 61.2369C640.056 67.6967 645.903 74.8167 650.976 82.4006C656.064 90.0015 660.417 98.1296 663.911 106.559C667.412 114.998 670.086 123.827 671.861 132.799C673.626 141.714 674.524 150.883 674.527 160.05C674.524 169.217 673.626 178.386 671.861 187.301C670.086 196.272 667.412 205.1 663.911 213.541C660.417 221.97 656.064 230.098 650.976 237.699C645.903 245.281 640.056 252.401 633.597 258.861C627.137 265.32 620.017 271.167 612.433 276.24C604.831 281.33 596.703 285.681 588.275 289.175C579.834 292.676 571.006 295.35 562.035 297.125C553.119 298.891 543.95 299.788 534.784 299.791C527.544 299.796 520.311 300.504 513.288 301.894C506.23 303.29 499.288 305.394 492.653 308.145C486.022 310.894 479.622 314.32 473.634 318.328C467.657 322.328 462.041 326.938 456.943 332.033C451.849 337.131 447.238 342.746 443.238 348.724C439.229 354.713 435.803 361.111 433.054 367.744C430.302 374.38 428.199 381.323 426.803 388.379C425.413 395.402 424.706 402.633 424.7 409.875C424.705 417.116 425.413 424.349 426.803 431.372C428.199 438.428 430.303 445.37 433.054 452.006C435.803 458.638 439.229 465.037 443.238 471.027C447.238 477.005 451.849 482.62 456.943 487.718C462.041 492.812 467.657 497.425 473.634 501.423C479.624 505.432 486.022 508.858 492.655 511.607C499.289 514.36 506.233 516.462 513.29 517.859C520.162 519.219 527.236 519.926 534.322 519.96V519.638V519.64Z" fill="url(#paint5_linear_558_778)"/>
<path d="M534.322 509.647C527.907 509.613 521.506 508.973 515.29 507.743C508.901 506.478 502.615 504.573 496.605 502.081C490.595 499.59 484.797 496.485 479.373 492.855C473.951 489.226 468.858 485.045 464.238 480.427C459.619 475.807 455.438 470.714 451.81 465.292C448.178 459.866 445.075 454.07 442.584 448.06C440.091 442.05 438.187 435.763 436.922 429.374C435.662 423.009 435.02 416.45 435.015 409.879C435.02 403.308 435.662 396.749 436.922 390.384C438.187 383.995 440.091 377.708 442.584 371.698C445.075 365.688 448.179 359.89 451.81 354.466C455.437 349.044 459.619 343.953 464.238 339.331C468.859 334.711 473.952 330.53 479.373 326.903C484.797 323.271 490.595 320.168 496.605 317.676C502.615 315.183 508.901 313.279 515.29 312.014C521.656 310.754 528.214 310.112 534.785 310.107C544.625 310.104 554.468 309.141 564.039 307.244C573.673 305.339 583.157 302.466 592.226 298.705C601.276 294.954 610.006 290.281 618.172 284.814C626.311 279.368 633.956 273.091 640.89 266.157C647.821 259.224 654.099 251.579 659.547 243.439C665.015 235.272 669.689 226.543 673.438 217.493C677.2 208.423 680.074 198.939 681.977 189.305C683.873 179.734 684.836 169.892 684.841 160.052C684.838 150.212 683.875 140.369 681.977 130.799C680.073 121.165 677.2 111.681 673.438 102.611C669.687 93.5612 665.015 84.8317 659.547 76.6649C654.102 68.526 647.826 60.8833 640.89 53.9473C633.954 47.0128 626.311 40.7354 618.172 35.2899C610.004 29.8227 601.275 25.1487 592.226 21.3992C583.157 17.6375 573.673 14.7632 564.039 12.8583C554.468 10.9627 544.625 9.99951 534.785 9.99487H160.045C150.205 9.99797 140.362 10.9612 130.792 12.8583C121.158 14.7632 111.673 17.6359 102.604 21.3992C93.5541 25.1487 84.8246 29.8227 76.6578 35.2899C68.5188 40.7354 60.8762 47.0128 53.9402 53.9473C47.0057 60.8833 40.7284 68.526 35.2828 76.6649C29.8156 84.8317 25.1416 93.5612 21.3922 102.611C17.6304 111.681 14.7561 121.165 12.8512 130.799C10.985 140.219 10.0232 149.903 9.9892 159.588H10.3108C10.3448 149.925 11.3051 140.263 13.1667 130.861C15.0653 121.251 17.9333 111.787 21.6874 102.733C25.4322 93.6988 30.0969 84.9878 35.5502 76.8411C40.9865 68.7177 47.25 61.0905 54.1675 54.1715C61.0865 47.254 68.7137 40.9905 76.8372 35.5543C84.9823 30.101 93.6933 25.4378 102.729 21.6915C111.783 17.9374 121.246 15.0693 130.857 13.1706C140.409 11.2781 150.231 10.318 160.048 10.3134H534.789C544.605 10.3164 554.426 11.2781 563.98 13.1706C573.589 15.0709 583.053 17.9374 592.107 21.6915C601.142 25.4363 609.853 30.101 617.999 35.5543C626.123 40.9905 633.75 47.254 640.669 54.1715C647.586 61.0905 653.85 68.7161 659.286 76.8411C664.739 84.9863 669.403 93.6973 673.149 102.733C676.903 111.787 679.77 121.25 681.67 130.861C683.562 140.413 684.522 150.234 684.527 160.052C684.524 169.87 683.562 179.691 681.67 189.243C679.771 198.853 676.903 208.317 673.149 217.371C669.403 226.405 664.739 235.118 659.286 243.263C653.85 251.386 647.586 259.013 640.669 265.932C633.75 272.85 626.123 279.113 617.999 284.55C609.854 290.001 601.143 294.666 592.107 298.412C583.053 302.166 573.591 305.033 563.98 306.933C554.428 308.826 544.607 309.786 534.789 309.79C528.196 309.795 521.615 310.438 515.231 311.703C508.827 312.969 502.52 314.88 496.486 317.382C490.46 319.879 484.644 322.993 479.197 326.639C473.759 330.277 468.65 334.472 464.013 339.107C459.378 343.745 455.183 348.852 451.545 354.29C447.901 359.733 444.787 365.549 442.288 371.579C439.787 377.614 437.876 383.921 436.609 390.325C435.346 396.71 434.703 403.291 434.697 409.882C434.702 416.473 435.345 423.054 436.609 429.439C437.876 435.844 439.787 442.15 442.288 448.185C444.787 454.215 447.901 460.031 451.545 465.474C455.182 470.91 459.377 476.019 464.013 480.657C468.65 485.293 473.759 489.487 479.197 493.124C484.644 496.77 490.462 499.884 496.486 502.381C502.52 504.882 508.827 506.793 515.231 508.06C521.467 509.293 527.888 509.937 534.325 509.971V509.649L534.322 509.647Z" fill="url(#paint6_linear_558_778)"/>
<path d="M534.321 499.653C528.555 499.619 522.808 499.042 517.229 497.938C511.482 496.8 505.831 495.088 500.432 492.848C495.027 490.608 489.811 487.815 484.932 484.55C480.049 481.281 475.463 477.516 471.304 473.359C467.146 469.2 463.382 464.614 460.113 459.731C456.846 454.85 454.054 449.635 451.815 444.229C449.576 438.83 447.863 433.179 446.725 427.432C445.592 421.705 445.013 415.799 445.009 409.877C445.013 403.954 445.592 398.047 446.725 392.32C447.863 386.573 449.574 380.922 451.815 375.523C454.055 370.118 456.846 364.903 460.113 360.023C463.382 355.14 467.146 350.554 471.304 346.395C475.463 342.237 480.049 338.473 484.932 335.204C489.811 331.937 495.027 329.146 500.434 326.906C505.833 324.667 511.484 322.954 517.231 321.816C522.958 320.683 528.864 320.104 534.786 320.1C545.275 320.097 555.769 319.068 565.978 317.048C576.258 315.016 586.378 311.95 596.055 307.935C605.711 303.933 615.022 298.948 623.733 293.116C632.415 287.306 640.566 280.613 647.958 273.22C655.349 265.828 662.043 257.678 667.852 248.997C673.683 240.286 678.669 230.973 682.671 221.319C686.684 211.642 689.75 201.522 691.784 191.242C693.806 181.034 694.833 170.539 694.836 160.05C694.833 149.561 693.804 139.065 691.784 128.858C689.752 118.577 686.686 108.458 682.672 98.7805C678.671 89.1248 673.684 79.8139 667.854 71.1029C662.043 62.4212 655.35 54.2714 647.96 46.8777C640.567 39.4871 632.418 32.7939 623.736 26.9834C615.025 21.1529 605.712 16.1665 596.058 12.1651C586.379 8.1513 576.26 5.08529 565.981 3.05365C555.773 1.03128 545.278 0.00463845 534.789 0H160.048C149.559 0.0030923 139.064 1.03128 128.856 3.0521C118.576 5.08374 108.456 8.14975 98.779 12.1636C89.1233 16.165 79.8108 21.1513 71.1013 26.9819C62.4196 32.7923 54.2699 39.4856 46.8762 46.8762C39.4856 54.2683 32.7908 62.4181 26.9819 71.0998C21.1513 79.8108 16.165 89.1233 12.1636 98.7774C8.14977 108.455 5.0838 118.574 3.05216 128.855C1.06072 138.912 0.0340383 149.248 2.29266e-05 159.583H0.321634C0.35565 149.265 1.37923 138.95 3.36758 128.917C5.39459 118.661 8.45432 108.563 12.4619 98.8995C16.4572 89.2608 21.4328 79.9669 27.2494 71.2776C33.049 62.6129 39.7284 54.4787 47.1051 47.102C54.4818 39.7268 62.616 33.0459 71.2807 27.2463C79.97 21.4296 89.2639 16.4542 98.9026 12.4589C108.565 8.45127 118.664 5.39143 128.92 3.36443C139.103 1.3467 149.576 0.321608 160.05 0.318516H534.791C545.264 0.321608 555.738 1.3467 565.921 3.36597C576.176 5.39298 586.276 8.45282 595.938 12.4604C605.578 16.4557 614.87 21.4312 623.56 27.2478C632.224 33.0474 640.359 39.7268 647.735 47.1035C655.11 54.4802 661.791 62.6145 667.591 71.2791C673.408 79.9685 678.383 89.2624 682.378 98.9011C686.386 108.563 689.446 118.662 691.473 128.918C693.491 139.101 694.516 149.575 694.519 160.047C694.516 170.52 693.491 180.994 691.471 191.177C689.444 201.433 686.384 211.532 682.377 221.194C678.382 230.833 673.406 240.127 667.589 248.816C661.79 257.481 655.111 265.615 647.734 272.992C640.357 280.367 632.223 287.048 623.558 292.847C614.869 298.664 605.575 303.639 595.936 307.635C586.274 311.642 576.175 314.702 565.919 316.729C555.735 318.747 545.263 319.772 534.789 319.776C528.846 319.781 522.918 320.361 517.171 321.499C511.405 322.64 505.732 324.358 500.313 326.606C494.889 328.854 489.655 331.656 484.757 334.935C479.86 338.211 475.259 341.99 471.08 346.166C466.905 350.344 463.126 354.945 459.849 359.843C456.569 364.742 453.768 369.975 451.519 375.399C449.271 380.819 447.552 386.491 446.413 392.257C445.275 398.004 444.695 403.93 444.69 409.875C444.695 415.819 445.275 421.747 446.413 427.492C447.554 433.258 449.271 438.931 451.519 444.35C453.768 449.774 456.569 455.008 459.849 459.906C463.125 464.802 466.904 469.404 471.08 473.583C475.258 477.758 479.859 481.536 484.757 484.814C489.657 488.094 494.891 490.895 500.313 493.143C505.734 495.391 511.405 497.111 517.171 498.25C522.768 499.359 528.536 499.937 534.325 499.971V499.65L534.321 499.653Z" fill="url(#paint7_linear_558_778)"/>
</g>
<defs>
<linearGradient id="paint0_linear_558_778" x1="624.881" y1="319.94" x2="69.946" y2="319.94" gradientUnits="userSpaceOnUse">
<stop stop-color="white"/>
<stop offset="0.76" stop-color="#161616"/>
<stop offset="1" stop-color="#171717"/>
</linearGradient>
<linearGradient id="paint1_linear_558_778" x1="634.879" y1="309.946" x2="59.9568" y2="309.946" gradientUnits="userSpaceOnUse">
<stop stop-color="white"/>
<stop offset="0.76" stop-color="#161616"/>
<stop offset="1" stop-color="#171717"/>
</linearGradient>
<linearGradient id="paint2_linear_558_778" x1="644.866" y1="299.953" x2="49.9567" y2="299.953" gradientUnits="userSpaceOnUse">
<stop stop-color="white"/>
<stop offset="0.76" stop-color="#161616"/>
<stop offset="1" stop-color="#171717"/>
</linearGradient>
<linearGradient id="paint3_linear_558_778" x1="654.861" y1="289.96" x2="39.9657" y2="289.96" gradientUnits="userSpaceOnUse">
<stop stop-color="white"/>
<stop offset="0.76" stop-color="#161616"/>
<stop offset="1" stop-color="#171717"/>
</linearGradient>
<linearGradient id="paint4_linear_558_778" x1="664.856" y1="279.967" x2="29.975" y2="279.967" gradientUnits="userSpaceOnUse">
<stop stop-color="white"/>
<stop offset="0.76" stop-color="#161616"/>
<stop offset="1" stop-color="#171717"/>
</linearGradient>
<linearGradient id="paint5_linear_558_778" x1="674.849" y1="269.973" x2="19.9825" y2="269.973" gradientUnits="userSpaceOnUse">
<stop stop-color="white"/>
<stop offset="0.76" stop-color="#161616"/>
<stop offset="1" stop-color="#171717"/>
</linearGradient>
<linearGradient id="paint6_linear_558_778" x1="684.841" y1="259.981" x2="9.98767" y2="259.981" gradientUnits="userSpaceOnUse">
<stop stop-color="white"/>
<stop offset="0.76" stop-color="#161616"/>
<stop offset="1" stop-color="#171717"/>
</linearGradient>
<linearGradient id="paint7_linear_558_778" x1="694.834" y1="249.988" x2="-0.00618471" y2="249.988" gradientUnits="userSpaceOnUse">
<stop stop-color="white"/>
<stop offset="0.76" stop-color="#161616"/>
<stop offset="1" stop-color="#171717"/>
</linearGradient>
</defs>
</svg>
