<svg width="473" height="576" viewBox="0 0 473 576" fill="none" xmlns="http://www.w3.org/2000/svg">
<g opacity="0.6">
<path d="M471.749 442.525C471.72 433.98 470.873 425.438 469.226 417.127C467.547 408.634 465.013 400.269 461.694 392.267C458.385 384.283 454.264 376.587 449.447 369.391C444.645 362.215 439.112 355.478 433.002 349.368C426.893 343.26 420.156 337.727 412.98 332.924C405.783 328.106 398.086 323.986 390.103 320.677C382.101 317.358 373.737 314.823 365.243 313.145C356.81 311.474 348.135 310.625 339.461 310.622C330.787 310.625 322.112 311.474 313.679 313.146C305.185 314.825 296.821 317.359 288.819 320.678C280.836 323.987 273.139 328.108 265.942 332.925C258.766 337.728 252.029 343.26 245.92 349.37C239.81 355.479 234.279 362.216 229.475 369.392C224.658 376.588 220.537 384.286 217.228 392.269C213.909 400.271 211.375 408.635 209.696 417.129C208.025 425.569 207.176 434.243 207.172 442.911C207.169 447.833 206.688 452.743 205.746 457.502C204.802 462.275 203.378 466.973 201.516 471.464C199.654 475.956 197.334 480.291 194.618 484.347C191.903 488.404 188.775 492.215 185.316 495.675C181.856 499.132 178.045 502.262 173.989 504.977C169.932 507.693 165.597 510.013 161.105 511.875C156.616 513.737 151.919 515.161 147.144 516.105C142.384 517.047 137.475 517.527 132.552 517.531C127.631 517.527 122.722 517.047 117.962 516.105C113.187 515.16 108.488 513.737 104 511.875C99.5081 510.013 95.1736 507.693 91.1168 504.977C87.0601 502.262 83.2493 499.134 79.7893 495.675C76.3306 492.215 73.201 488.404 70.4875 484.347C67.7715 480.289 65.4512 475.955 63.5893 471.464C61.7262 466.972 60.3035 462.275 59.3598 457.502C58.4173 452.743 57.9371 447.833 57.9332 442.911L57.9332 132.549C57.9371 127.627 58.4173 122.717 59.3597 117.959C60.3048 113.184 61.7274 108.487 63.5893 103.997C65.4512 99.5053 67.7715 95.1707 70.4875 91.114C73.2009 87.0586 76.3306 83.2478 79.7893 79.7865C83.2493 76.3291 87.0601 73.1994 91.1168 70.4847C95.1735 67.77 99.5081 65.4484 104 63.5865C108.492 61.7233 113.189 60.3007 117.962 59.3569C122.597 58.4388 127.375 57.9599 132.169 57.9317L132.169 58.1981C127.393 58.2263 122.633 58.7039 118.014 59.6182C113.255 60.5606 108.574 61.9782 104.103 63.8337C99.6259 65.6891 95.3067 68.0018 91.2654 70.7062C87.2214 73.4133 83.4247 76.5313 79.9788 79.9747C76.5355 83.4206 73.4174 87.2174 70.7103 91.2613C68.0058 95.3026 65.6932 99.6219 63.8377 104.1C61.9835 108.571 60.5647 113.252 59.6222 118.011C58.6836 122.755 58.2047 127.646 58.2009 132.551L58.2009 442.912C58.2047 447.818 58.6836 452.709 59.6223 457.451C60.5647 462.21 61.9823 466.891 63.8378 471.363C65.6932 475.84 68.0059 480.159 70.7103 484.2C73.4174 488.244 76.5355 492.042 79.9788 495.487C83.4247 498.93 87.2227 502.049 91.2654 504.755C95.3067 507.46 99.6259 509.772 104.104 511.628C108.576 513.482 113.256 514.901 118.016 515.843C122.759 516.782 127.65 517.261 132.555 517.265C137.459 517.261 142.351 516.782 147.095 515.843C151.855 514.901 156.535 513.483 161.007 511.628C165.483 509.772 169.804 507.46 173.844 504.755C177.888 502.049 181.685 498.93 185.131 495.487C188.574 492.041 191.692 488.244 194.399 484.2C197.104 480.159 199.416 475.84 201.272 471.362C203.126 466.89 204.545 462.21 205.487 457.45C206.426 452.707 206.905 447.815 206.909 442.911C206.911 434.224 207.763 425.532 209.438 417.077C211.12 408.563 213.659 400.182 216.984 392.167C220.298 384.172 224.427 376.459 229.256 369.245C234.069 362.054 239.612 355.304 245.733 349.181C251.855 343.06 258.606 337.516 265.796 332.705C273.011 327.876 280.723 323.746 288.719 320.432C296.735 317.108 305.116 314.569 313.629 312.886C322.083 311.211 330.775 310.361 339.462 310.357C348.149 310.36 356.842 311.211 365.296 312.885C373.81 314.567 382.191 317.107 390.206 320.431C398.201 323.745 405.914 327.875 413.129 332.704C420.319 337.516 427.07 343.059 433.191 349.18C439.312 355.302 444.855 362.052 449.667 369.243C454.496 376.458 458.626 384.17 461.94 392.166C465.264 400.181 467.803 408.562 469.486 417.076C471.135 425.406 471.985 433.966 472.014 442.525L471.747 442.525L471.749 442.525Z" fill="url(#paint0_linear_558_768)"/>
<path d="M463.473 442.529C463.445 434.527 462.65 426.523 461.108 418.736C459.534 410.777 457.16 402.94 454.051 395.441C450.948 387.959 447.086 380.744 442.57 373.997C438.067 367.269 432.88 360.953 427.151 355.222C421.42 349.493 415.104 344.306 408.376 339.803C401.63 335.287 394.415 331.425 386.932 328.322C379.433 325.213 371.596 322.839 363.637 321.265C355.726 319.698 347.592 318.903 339.46 318.899C331.329 318.901 323.195 319.698 315.284 321.265C307.325 322.838 299.487 325.213 291.989 328.322C284.506 331.424 277.292 335.287 270.545 339.803C263.817 344.306 257.5 349.493 251.77 355.222C246.041 360.951 240.853 367.268 236.351 373.997C231.834 380.743 227.972 387.958 224.87 395.441C221.761 402.94 219.386 410.777 217.813 418.736C216.245 426.649 215.45 434.781 215.446 442.913C215.442 448.372 214.91 453.822 213.862 459.11C212.813 464.414 211.231 469.637 209.159 474.635C207.091 479.626 204.512 484.443 201.492 488.954C198.481 493.457 195.006 497.687 191.166 501.529C187.325 505.368 183.094 508.842 178.591 511.855C174.08 514.875 169.263 517.454 164.273 519.522C159.275 521.594 154.051 523.176 148.747 524.225C143.459 525.271 138.009 525.805 132.549 525.809C127.09 525.805 121.64 525.273 116.351 524.225C111.047 523.176 105.824 521.594 100.826 519.522C95.8373 517.454 91.0199 514.875 86.5073 511.855C82.0037 508.842 77.7729 505.368 73.9326 501.529C70.0935 497.687 66.6195 493.457 63.6064 488.954C60.5869 484.443 58.0079 479.626 55.9399 474.635C53.868 469.637 52.2852 464.414 51.2365 459.11C50.1903 453.822 49.6563 448.372 49.6525 442.912L49.6524 132.55C49.6563 127.09 50.189 121.64 51.2365 116.353C52.2852 111.049 53.868 105.825 55.9399 100.828C58.0079 95.8386 60.5869 91.0212 63.6064 86.5087C66.6194 82.0063 70.0935 77.7755 73.9325 73.9339C77.7741 70.0949 82.005 66.6208 86.5073 63.6077C91.0148 60.5895 95.8334 58.0105 100.826 55.9412C105.824 53.8693 111.047 52.2866 116.351 51.2378C121.516 50.216 126.834 49.6833 132.165 49.6551L132.165 49.9215C126.852 49.9496 121.55 50.4798 116.403 51.4991C111.113 52.5465 105.906 54.1241 100.927 56.1884C95.9499 58.2513 91.1479 60.8226 86.6559 63.8293C82.165 66.8334 77.947 70.2972 74.1208 74.1221C70.2958 77.9496 66.832 82.1664 63.8279 86.6572C60.8199 91.1493 58.2499 95.9513 56.187 100.929C54.1228 105.907 52.5451 111.113 51.4977 116.404C50.454 121.676 49.9226 127.108 49.9188 132.55L49.9188 442.912C49.9227 448.354 50.4541 453.786 51.4977 459.058C52.5452 464.348 54.1228 469.554 56.187 474.533C58.2499 479.51 60.8212 484.312 63.8279 488.804C66.8333 493.295 70.2959 497.513 74.1208 501.339C77.947 505.164 82.1651 508.627 86.6559 511.632C91.148 514.64 95.9499 517.21 100.927 519.273C105.905 521.337 111.111 522.915 116.403 523.963C121.674 525.006 127.106 525.538 132.549 525.541C137.991 525.538 143.423 525.006 148.695 523.963C153.986 522.915 159.193 521.337 164.17 519.273C169.147 517.21 173.949 514.639 178.442 511.632C182.934 508.627 187.15 505.164 190.977 501.339C194.802 497.512 198.264 493.295 201.27 488.804C204.277 484.312 206.847 479.51 208.912 474.533C210.976 469.556 212.554 464.349 213.601 459.058C214.645 453.786 215.176 448.354 215.18 442.912C215.182 434.762 215.98 426.61 217.551 418.684C219.129 410.705 221.508 402.852 224.624 395.339C227.729 387.844 231.6 380.614 236.128 373.85C240.638 367.109 245.837 360.78 251.58 355.035C257.325 349.292 263.656 344.093 270.395 339.583C277.159 335.055 284.39 331.184 291.883 328.079C299.395 324.963 307.25 322.583 315.229 321.007C323.155 319.437 331.307 318.639 339.456 318.635C347.606 318.638 355.757 319.435 363.684 321.007C371.663 322.584 379.518 324.963 387.029 328.079C394.524 331.184 401.754 335.055 408.519 339.583C415.261 344.094 421.592 349.293 427.334 355.035C433.077 360.78 438.276 367.109 442.786 373.85C447.314 380.615 451.185 387.845 454.29 395.339C457.406 402.85 459.786 410.705 461.363 418.684C462.908 426.486 463.706 434.506 463.733 442.527L463.466 442.527L463.473 442.529Z" fill="url(#paint1_linear_558_768)"/>
<path d="M455.197 442.524C455.169 435.06 454.428 427.598 452.99 420.339C451.521 412.909 449.305 405.598 446.405 398.607C443.511 391.627 439.908 384.895 435.692 378.598C431.489 372.317 426.646 366.42 421.299 361.071C415.949 355.722 410.052 350.879 403.771 346.678C397.476 342.464 390.744 338.859 383.763 335.965C376.773 333.066 369.461 330.851 362.031 329.381C354.648 327.918 347.054 327.175 339.462 327.173C331.87 327.175 324.276 327.92 316.892 329.381C309.463 330.851 302.151 333.066 295.161 335.965C288.179 338.859 281.447 342.464 275.152 346.678C268.871 350.881 262.975 355.722 257.626 361.071C252.277 366.421 247.435 372.318 243.233 378.598C239.017 384.894 235.414 391.627 232.52 398.607C229.621 405.598 227.405 412.909 225.935 420.339C224.473 427.723 223.73 435.316 223.728 442.908C223.724 448.906 223.137 454.895 221.986 460.711C220.83 466.556 219.087 472.305 216.809 477.801C214.532 483.294 211.695 488.594 208.374 493.554C205.061 498.505 201.243 503.156 197.024 507.378C192.802 511.598 188.151 515.417 183.2 518.728C178.239 522.049 172.941 524.886 167.447 527.162C161.951 529.441 156.202 531.183 150.357 532.339C144.541 533.49 138.551 534.075 132.554 534.081C126.557 534.077 120.567 533.49 114.751 532.339C108.907 531.183 103.157 529.44 97.661 527.162C92.1688 524.886 86.8688 522.049 81.908 518.728C76.9575 515.416 72.3066 511.597 68.0847 507.378C63.8653 503.157 60.0468 498.506 56.7341 493.554C53.4137 488.594 50.576 483.294 48.3005 477.801C46.0212 472.307 44.2797 466.556 43.1234 460.711C41.9722 454.895 41.387 448.905 41.3818 442.908L41.3818 132.547C41.3857 126.549 41.9722 120.56 43.1233 114.744C44.2797 108.899 46.0225 103.15 48.3005 97.6538C50.576 92.1616 53.4137 86.8615 56.7341 81.9007C60.0468 76.9489 63.8653 72.298 68.0847 68.0774C72.3053 63.8581 76.9575 60.0395 81.908 56.7268C86.8687 53.4064 92.1688 50.5687 97.661 48.2932C103.156 46.0139 108.907 44.2724 114.751 43.1161C120.443 41.9892 126.301 41.404 132.17 41.3758L132.17 41.6422C126.319 41.6704 120.477 42.2543 114.802 43.3773C108.976 44.5297 103.244 46.2675 97.7634 48.5404C92.2841 50.8121 86.9993 53.6407 82.0565 56.9496C77.1188 60.2547 72.4807 64.0617 68.2729 68.2669C64.0676 72.4747 60.2594 77.1115 56.9556 82.0505C53.6467 86.9934 50.818 92.2781 48.5464 97.7575C46.2735 103.238 44.5371 108.971 43.3833 114.796C42.2359 120.596 41.652 126.568 41.6469 132.548L41.6469 442.91C41.6508 448.89 42.2347 454.862 43.3833 460.662C44.5358 466.488 46.2735 472.22 48.5464 477.7C50.8181 483.18 53.6467 488.464 56.9556 493.407C60.2607 498.346 64.0689 502.983 68.2729 507.191C72.4807 511.396 77.1175 515.204 82.0565 518.509C86.9994 521.818 92.2841 524.647 97.7635 526.919C103.244 529.192 108.977 530.928 114.802 532.082C120.602 533.229 126.574 533.814 132.554 533.818C138.534 533.814 144.507 533.23 150.306 532.082C156.132 530.929 161.864 529.192 167.345 526.919C172.824 524.648 178.108 521.818 183.052 518.509C187.991 515.204 192.628 511.396 196.835 507.192C201.041 502.984 204.849 498.347 208.153 493.408C211.462 488.466 214.29 483.181 216.562 477.702C218.835 472.221 220.571 466.488 221.725 460.663C222.872 454.863 223.456 448.891 223.461 442.911C223.464 435.298 224.209 427.688 225.675 420.289C227.148 412.84 229.368 405.512 232.274 398.507C235.173 391.512 238.785 384.765 243.011 378.452C247.22 372.16 252.073 366.249 257.436 360.884C262.802 355.521 268.713 350.668 275.004 346.459C281.316 342.233 288.064 338.621 295.059 335.722C302.064 332.816 309.392 330.596 316.841 329.122C324.241 327.657 331.852 326.912 339.463 326.909C347.073 326.912 354.685 327.657 362.084 329.122C369.532 330.596 376.862 332.816 383.865 335.722C390.861 338.621 397.609 342.233 403.921 346.459C410.212 350.668 416.123 355.523 421.489 360.884C426.851 366.251 431.706 372.16 435.914 378.452C440.139 384.763 443.752 391.512 446.651 398.507C449.556 405.51 451.777 412.839 453.251 420.289C454.691 427.564 455.435 435.043 455.463 442.525L455.197 442.525L455.197 442.524Z" fill="url(#paint2_linear_558_768)"/>
<path d="M446.919 442.525C446.891 435.594 446.201 428.673 444.869 421.946C443.505 415.05 441.449 408.265 438.759 401.779C436.072 395.3 432.726 389.051 428.814 383.205C424.911 377.373 420.414 371.897 415.445 366.926C410.474 361.957 404.997 357.46 399.166 353.557C393.32 349.645 387.071 346.299 380.592 343.612C374.106 340.922 367.32 338.867 360.425 337.502C353.574 336.146 346.52 335.455 339.461 335.452C332.402 335.455 325.349 336.146 318.496 337.502C311.601 338.865 304.815 340.922 298.329 343.612C291.85 346.299 285.601 349.645 279.755 353.557C273.924 357.46 268.447 361.957 263.476 366.926C258.508 371.897 254.01 377.373 250.107 383.205C246.195 389.051 242.849 395.3 240.163 401.779C237.472 408.266 235.417 415.05 234.052 421.946C232.696 428.797 232.006 435.85 232.002 442.91C231.998 449.444 231.359 455.975 230.104 462.32C228.842 468.697 226.94 474.973 224.453 480.973C221.969 486.967 218.873 492.749 215.251 498.159C211.64 503.555 207.477 508.626 202.875 513.231C198.27 517.832 193.199 521.996 187.805 525.607C182.394 529.229 176.611 532.325 170.617 534.809C164.619 537.297 158.343 539.199 151.965 540.46C145.62 541.715 139.089 542.354 132.555 542.358C126.02 542.354 119.491 541.715 113.146 540.46C106.768 539.198 100.492 537.296 94.4938 534.809C88.4996 532.325 82.7168 529.229 77.3065 525.607C71.9117 521.998 66.8408 517.833 62.2347 513.231C57.6325 508.626 53.4695 503.555 49.8584 498.16C46.2371 492.75 43.1408 486.969 40.6566 480.975C38.1685 474.974 36.2669 468.698 35.0056 462.321C33.7507 455.976 33.1117 449.445 33.1066 442.911L33.1065 132.549C33.1104 126.015 33.7494 119.484 35.0056 113.139C36.2682 106.761 38.1697 100.485 40.6565 94.487C43.1408 88.4928 46.2371 82.71 49.8584 77.2998C53.4682 71.9049 57.6325 66.834 62.2347 62.2279C66.8395 57.6257 71.9104 53.4627 77.3052 49.8517C82.7155 46.2303 88.4983 43.134 94.4912 40.6498C100.492 38.1617 106.768 36.2601 113.145 34.9988C119.365 33.7682 125.764 33.1305 132.171 33.1011L132.171 33.3674C125.778 33.3956 119.396 34.032 113.197 35.26C106.835 36.5188 100.578 38.4152 94.5949 40.8969C88.6174 43.3747 82.8499 46.4621 77.4551 50.0732C72.0717 53.6753 67.0136 57.8281 62.4229 62.4162C57.8348 67.0069 53.6821 72.0649 50.0799 77.4483C46.4689 82.8444 43.3815 88.6107 40.9037 94.5895C38.422 100.572 36.5255 106.83 35.2668 113.192C34.0144 119.515 33.378 126.028 33.3729 132.549L33.3729 442.911C33.3768 449.433 34.0144 455.947 35.2668 462.27C36.5256 468.632 38.422 474.889 40.9037 480.872C43.3815 486.851 46.4689 492.617 50.08 498.012C53.6821 503.395 57.8361 508.453 62.423 513.044C67.0137 517.632 72.0705 521.785 77.4551 525.387C82.8512 528.998 88.6174 532.086 94.5949 534.563C100.578 537.045 106.837 538.941 113.197 540.2C119.52 541.453 126.033 542.089 132.555 542.094C139.077 542.09 145.589 541.453 151.914 540.2C158.274 538.941 164.534 537.045 170.516 534.563C176.494 532.086 182.261 528.998 187.657 525.387C193.041 521.785 198.099 517.631 202.689 513.044C207.278 508.453 211.43 503.395 215.032 498.012C218.644 492.616 221.731 486.85 224.209 480.872C226.69 474.889 228.587 468.63 229.846 462.27C231.098 455.947 231.734 449.433 231.738 442.912C231.742 435.833 232.434 428.764 233.793 421.896C235.161 414.983 237.223 408.18 239.918 401.678C242.611 395.182 245.965 388.917 249.887 383.058C253.797 377.215 258.307 371.724 263.289 366.737C268.275 361.755 273.765 357.246 279.609 353.337C285.469 349.414 291.735 346.059 298.23 343.368C304.732 340.671 311.534 338.611 318.448 337.243C325.315 335.883 332.386 335.192 339.464 335.188C346.541 335.192 353.612 335.883 360.479 337.243C367.392 338.611 374.194 340.672 380.697 343.368C387.193 346.061 393.457 349.414 399.317 353.337C405.16 357.246 410.651 361.756 415.637 366.739C420.62 371.724 425.129 377.215 429.038 383.058C432.96 388.919 436.315 395.183 439.007 401.678C441.704 408.18 443.764 414.983 445.132 421.896C446.467 428.638 447.158 435.577 447.187 442.528L446.921 442.528L446.919 442.525Z" fill="url(#paint3_linear_558_768)"/>
<path d="M438.644 442.527C438.616 436.133 437.979 429.752 436.751 423.553C435.492 417.193 433.596 410.934 431.114 404.951C428.636 398.974 425.549 393.206 421.938 387.811C418.336 382.428 414.183 377.37 409.595 372.779C405.004 368.192 399.947 364.04 394.563 360.436C389.168 356.825 383.4 353.738 377.423 351.26C371.44 348.778 365.181 346.882 358.821 345.623C352.497 344.371 345.985 343.734 339.463 343.729C332.941 343.733 326.427 344.371 320.104 345.623C313.744 346.882 307.484 348.778 301.502 351.26C295.524 353.738 289.757 356.825 284.361 360.436C278.977 364.038 273.919 368.191 269.328 372.779C264.74 377.37 260.588 382.428 256.985 387.811C253.374 393.207 250.287 398.974 247.809 404.951C245.328 410.934 243.431 417.193 242.172 423.553C240.92 429.877 240.284 436.389 240.278 442.911C240.275 449.99 239.583 457.061 238.223 463.927C236.856 470.841 234.795 477.643 232.098 484.145C229.407 490.639 226.053 496.903 222.129 502.766C218.22 508.609 213.71 514.099 208.728 519.086C203.742 524.068 198.252 528.577 192.407 532.487C186.547 536.409 180.282 539.764 173.787 542.455C167.285 545.152 160.482 547.213 153.569 548.58C146.703 549.94 139.632 550.632 132.553 550.635C125.475 550.632 118.404 549.94 111.538 548.58C104.624 547.213 97.8223 545.152 91.3198 542.455C84.825 539.763 78.5593 536.409 72.6996 532.487C66.8566 528.577 61.3657 524.067 56.3793 519.085C51.3968 514.099 46.888 508.609 42.9786 502.764C39.0551 496.902 35.7013 490.636 33.0097 484.144C30.3129 477.642 28.2525 470.839 26.8849 463.926C25.525 457.06 24.8335 449.989 24.8296 442.91L24.8296 132.548C24.8335 125.471 25.525 118.4 26.8849 111.532C28.2525 104.619 30.3141 97.8166 33.0097 91.3141C35.7013 84.8218 39.055 78.5562 42.9786 72.694C46.8893 66.8496 51.398 61.36 56.3806 56.3736C61.3657 51.3911 66.8566 46.8824 72.7009 42.9729C78.5606 39.0507 84.8262 35.6957 91.321 33.004C97.8223 30.3072 104.624 28.2468 111.539 26.8792C118.283 25.5436 125.222 24.8534 132.171 24.824L132.171 25.0904C125.241 25.1185 118.318 25.8087 111.592 27.1404C104.696 28.5042 97.9106 30.5608 91.4248 33.2512C84.9453 35.9377 78.695 39.2837 72.8507 43.1957C67.0192 47.0987 61.5424 51.596 56.5714 56.5644C51.6029 61.5355 47.1057 67.0123 43.2027 72.8438C39.2907 78.6894 35.9446 84.9383 33.2581 91.4178C30.5677 97.9037 28.5124 104.689 27.1474 111.585C25.7913 118.436 25.1011 125.489 25.0973 132.548L25.0973 442.91C25.1011 449.969 25.7913 457.022 27.1474 463.873C28.5112 470.769 30.5677 477.555 33.2581 484.04C35.9446 490.521 39.2907 496.77 43.2027 502.614C47.1057 508.446 51.6029 513.923 56.5714 518.894C61.5424 523.861 67.0192 528.359 72.8507 532.262C78.6963 536.175 84.9453 539.521 91.4248 542.207C97.9106 544.897 104.696 546.953 111.592 548.318C118.443 549.674 125.496 550.364 132.555 550.368C139.615 550.364 146.668 549.674 153.52 548.318C160.416 546.954 167.201 544.897 173.687 542.207C180.167 539.521 186.417 536.174 192.261 532.262C198.093 528.359 203.571 523.861 208.541 518.894C213.509 513.923 218.006 508.446 221.909 502.614C225.821 496.769 229.167 490.52 231.854 484.04C234.544 477.554 236.599 470.769 237.965 463.873C239.321 457.022 240.011 449.969 240.015 442.91C240.018 436.375 240.657 429.845 241.912 423.5C243.175 417.123 245.077 410.845 247.563 404.846C250.048 398.852 253.144 393.07 256.765 387.66C260.375 382.265 264.539 377.194 269.141 372.59C273.746 367.987 278.817 363.823 284.212 360.213C289.622 356.592 295.404 353.496 301.398 351.011C307.397 348.523 313.673 346.622 320.051 345.36C326.396 344.106 332.927 343.467 339.462 343.462C345.996 343.465 352.527 344.104 358.872 345.36C365.25 346.623 371.526 348.525 377.524 351.011C383.518 353.496 389.301 356.592 394.711 360.213C400.107 363.824 405.178 367.987 409.782 372.59C414.384 377.194 418.548 382.265 422.158 387.66C425.779 393.07 428.875 398.852 431.36 404.846C433.848 410.847 435.75 417.123 437.011 423.5C438.242 429.72 438.879 436.119 438.909 442.526L438.642 442.526L438.644 442.527Z" fill="url(#paint4_linear_558_768)"/>
<path d="M430.367 442.527C430.339 436.676 429.755 430.836 428.632 425.159C427.48 419.334 425.742 413.601 423.469 408.121C421.198 402.641 418.369 397.357 415.06 392.414C411.755 387.475 407.947 382.838 403.743 378.63C399.535 374.425 394.898 370.617 389.959 367.313C385.016 364.004 379.731 361.175 374.252 358.904C368.771 356.631 363.038 354.894 357.213 353.741C351.414 352.593 345.441 352.009 339.461 352.004C333.481 352.008 327.509 352.592 321.709 353.741C315.883 354.893 310.151 356.631 304.671 358.904C299.191 361.175 293.907 364.004 288.964 367.313C284.025 370.618 279.388 374.425 275.18 378.63C270.975 382.838 267.167 387.475 263.863 392.414C260.554 397.357 257.724 402.641 255.454 408.121C253.181 413.601 251.444 419.334 250.291 425.159C249.143 430.959 248.559 436.931 248.554 442.911C248.552 450.522 247.806 458.133 246.341 465.533C244.868 472.983 242.647 480.312 239.742 487.315C236.842 494.31 233.23 501.059 229.004 507.371C224.795 513.662 219.942 519.571 214.579 524.938C209.213 530.302 203.302 535.155 197.012 539.363C190.7 543.589 183.953 547.201 176.956 550.1C169.952 553.006 162.623 555.226 155.174 556.7C147.774 558.165 140.164 558.911 132.553 558.913C124.942 558.911 117.331 558.165 109.932 556.7C102.482 555.226 95.1534 553.006 88.1502 550.1C81.1547 547.201 74.4063 543.589 68.0946 539.363C61.8046 535.155 55.8937 530.301 50.527 524.938C45.1642 519.571 40.311 513.662 36.1019 507.371C31.8761 501.059 28.2638 494.312 25.3647 487.315C22.4579 480.309 20.2374 472.981 18.7661 465.533C17.2999 458.136 16.5559 450.524 16.5521 442.911L16.552 132.55C16.5546 124.94 17.2999 117.328 18.7648 109.929C20.2387 102.479 22.4591 95.1508 25.3646 88.1476C28.2638 81.1521 31.8761 74.4037 36.1018 68.092C40.3109 61.8021 45.1642 55.8911 50.527 50.5244C55.8937 45.1616 61.8033 40.3071 68.0946 36.0993C74.4063 31.8735 81.1534 28.2611 88.1502 25.362C95.1547 22.4565 102.483 20.2361 109.932 18.7622C117.207 17.3216 124.686 16.5777 132.168 16.5495L132.168 16.8159C124.704 16.844 117.242 17.5854 109.983 19.0222C102.554 20.4922 95.2417 22.7075 88.2513 25.6066C81.2699 28.5006 74.5382 32.1053 68.2431 36.3196C61.9634 40.521 56.0666 45.3639 50.7165 50.7127C45.3678 56.0627 40.5248 61.9595 36.3234 68.2405C32.1092 74.5356 28.5045 81.2673 25.6105 88.2488C22.7114 95.2392 20.4961 102.551 19.026 109.981C17.5637 117.364 16.821 124.958 16.8184 132.55L16.8184 442.911C16.821 450.504 17.565 458.097 19.026 465.481C20.4961 472.91 22.7114 480.222 25.6105 487.213C28.5045 494.194 32.1092 500.926 36.3234 507.221C40.5248 513.5 45.3678 519.397 50.7165 524.747C56.0666 530.096 61.9634 534.939 68.2444 539.14C74.5395 543.355 81.2712 546.959 88.2526 549.853C95.2418 552.752 102.554 554.968 109.984 556.438C117.368 557.899 124.962 558.643 132.554 558.645C140.146 558.643 147.74 557.899 155.123 556.438C162.553 554.968 169.865 552.752 176.855 549.853C183.836 546.959 190.568 543.355 196.863 539.14C203.143 534.939 209.04 530.096 214.39 524.747C219.738 519.397 224.581 513.5 228.783 507.219C232.998 500.923 236.602 494.191 239.496 487.211C242.395 480.221 244.61 472.909 246.08 465.479C247.543 458.095 248.285 450.501 248.288 442.91C248.292 436.913 248.878 430.923 250.029 425.107C251.186 419.261 252.928 413.512 255.207 408.017C257.483 402.525 260.321 397.225 263.64 392.265C266.953 387.315 270.771 382.664 274.991 378.442C279.213 374.223 283.863 370.404 288.814 367.091C293.775 363.771 299.074 360.933 304.567 358.656C310.063 356.377 315.813 354.636 321.657 353.479C327.473 352.328 333.462 351.743 339.46 351.738C345.457 351.742 351.447 352.328 357.263 353.479C363.108 354.636 368.857 356.378 374.353 358.656C379.845 360.933 385.146 363.771 390.106 367.091C395.057 370.404 399.708 374.223 403.93 378.442C408.149 382.664 411.969 387.315 415.28 392.265C418.601 397.226 421.438 402.525 423.715 408.018C425.994 413.513 427.736 419.264 428.892 425.108C430.019 430.8 430.604 436.659 430.632 442.527L430.366 442.527L430.367 442.527Z" fill="url(#paint5_linear_558_768)"/>
<path d="M422.092 442.527C422.064 437.214 421.533 431.912 420.514 426.765C419.467 421.473 417.889 416.267 415.825 411.289C413.762 406.312 411.191 401.51 408.184 397.018C405.178 392.527 401.716 388.309 397.891 384.483C394.065 380.658 389.847 377.195 385.356 374.19C380.863 371.182 376.062 368.612 371.084 366.549C366.107 364.485 360.9 362.907 355.609 361.86C350.337 360.816 344.905 360.285 339.463 360.281C334.021 360.285 328.589 360.816 323.317 361.86C318.026 362.907 312.819 364.485 307.842 366.549C302.864 368.612 298.062 371.183 293.57 374.19C289.079 377.194 284.863 380.658 281.035 384.483C277.209 388.31 273.746 392.528 270.742 397.018C267.734 401.51 265.164 406.312 263.1 411.289C261.036 416.267 259.458 421.473 258.411 426.765C257.367 432.037 256.836 437.469 256.832 442.911C256.829 451.06 256.032 459.212 254.46 467.138C252.883 475.117 250.504 482.972 247.388 490.484C244.281 497.979 240.412 505.208 235.884 511.972C231.374 518.713 226.175 525.044 220.432 530.787C214.69 536.528 208.359 541.727 201.617 546.239C194.853 550.767 187.623 554.638 180.128 557.743C172.617 560.859 164.762 563.239 156.783 564.816C148.857 566.386 140.705 567.183 132.555 567.187C124.406 567.185 116.254 566.387 108.328 564.816C100.349 563.238 92.4941 560.859 84.9825 557.743C77.4876 554.637 70.2577 550.767 63.494 546.239C56.7533 541.729 50.4236 536.531 44.6792 530.787C38.936 525.043 33.7371 518.713 29.2271 511.972C24.6991 505.207 20.8281 497.977 17.7228 490.484C14.6073 482.972 12.2268 475.117 10.6492 467.138C9.07923 459.212 8.28149 451.06 8.27764 442.911L8.27763 132.549C8.28019 124.4 9.07793 116.248 10.6491 108.322C12.2267 100.343 14.606 92.488 17.7228 84.9764C20.828 77.4815 24.6991 70.2516 29.227 63.4879C33.7371 56.7472 38.936 50.4175 44.6792 44.6731C50.4236 38.9299 56.7533 33.731 63.494 29.221C70.2577 24.693 77.4876 20.822 84.9825 17.7168C92.4941 14.6012 100.349 12.2207 108.328 10.6431C116.13 9.09749 124.15 8.30091 132.171 8.27273L132.171 8.53909C124.168 8.56727 116.166 9.36256 108.379 10.9043C100.421 12.4768 92.5824 14.8521 85.0837 17.9612C77.6015 21.0627 70.387 24.926 63.6399 29.4425C56.912 33.9448 50.5952 39.1323 44.8649 44.8613C39.1358 50.5917 33.9483 56.9086 29.446 63.6365C24.9296 70.3823 21.0675 77.5968 17.9648 85.0802C14.8557 92.5789 12.4803 100.416 10.9078 108.376C9.34044 116.287 8.54524 124.422 8.54139 132.552L8.54141 442.913C8.54397 451.043 9.34046 459.177 10.9078 467.09C12.4816 475.048 14.8557 482.886 17.9648 490.385C21.0663 497.867 24.9296 505.082 29.446 511.829C33.9484 518.557 39.1358 524.873 44.8649 530.604C50.5952 536.333 56.9108 541.52 63.64 546.023C70.3858 550.539 77.6003 554.401 85.0837 557.504C92.5824 560.613 100.419 562.987 108.379 564.561C116.29 566.128 124.424 566.923 132.555 566.927C140.687 566.925 148.821 566.128 156.732 564.561C164.69 562.988 172.528 560.613 180.027 557.504C187.509 554.401 194.725 550.539 201.471 546.023C208.199 541.52 214.516 536.333 220.246 530.604C225.975 524.873 231.162 518.557 235.665 511.829C240.18 505.083 244.043 497.868 247.146 490.385C250.255 482.886 252.629 475.049 254.203 467.09C255.77 459.179 256.566 451.045 256.569 442.913C256.573 437.453 257.106 432.003 258.153 426.716C259.202 421.412 260.785 416.189 262.857 411.191C264.925 406.201 267.504 401.383 270.523 396.872C273.536 392.368 277.01 388.137 280.849 384.297C284.691 380.458 288.921 376.984 293.424 373.971C297.932 370.953 302.749 368.374 307.743 366.304C312.741 364.233 317.964 362.65 323.268 361.601C328.557 360.555 334.007 360.022 339.466 360.017C344.925 360.021 350.374 360.554 355.663 361.601C360.967 362.65 366.19 364.233 371.188 366.304C376.182 368.374 381 370.953 385.507 373.971C390.009 376.983 394.24 380.457 398.082 384.297C401.921 388.137 405.395 392.368 408.407 396.872C411.426 401.383 414.005 406.202 416.073 411.191C418.145 416.189 419.728 421.412 420.777 426.716C421.798 431.88 422.331 437.198 422.359 442.529L422.093 442.529L422.092 442.527Z" fill="url(#paint6_linear_558_768)"/>
<path d="M413.814 442.526C413.786 437.751 413.308 432.991 412.394 428.371C411.451 423.611 410.034 418.931 408.178 414.459C406.323 409.983 404.01 405.663 401.306 401.622C398.599 397.578 395.481 393.78 392.037 390.336C388.593 386.892 384.795 383.774 380.751 381.067C376.708 378.361 372.389 376.049 367.912 374.195C363.441 372.34 358.76 370.922 354.001 369.979C349.258 369.04 344.366 368.561 339.461 368.558C334.556 368.561 329.664 369.04 324.921 369.979C320.161 370.922 315.481 372.339 311.009 374.195C306.533 376.05 302.213 378.361 298.172 381.067C294.128 383.774 290.33 386.892 286.886 390.336C283.442 393.78 280.324 397.578 277.617 401.622C274.911 405.663 272.6 409.983 270.744 414.461C268.89 418.932 267.471 423.613 266.529 428.372C265.59 433.115 265.111 438.007 265.108 442.911C265.105 451.599 264.254 460.29 262.58 468.745C260.897 477.259 258.358 485.64 255.032 493.655C251.718 501.652 247.59 509.363 242.76 516.578C237.948 523.768 232.404 530.519 226.282 536.641C220.16 542.762 213.41 548.307 206.22 553.118C199.005 557.946 191.293 562.076 183.297 565.39C175.282 568.714 166.901 571.254 158.387 572.938C149.933 574.612 141.241 575.463 132.554 575.465C123.867 575.463 115.174 574.611 106.72 572.938C98.2062 571.255 89.8252 568.716 81.8104 565.391C73.8135 562.077 66.1021 557.948 58.8876 553.119C51.6975 548.307 44.9478 542.763 38.8243 536.642C32.7034 530.52 27.16 523.77 22.3478 516.58C17.5189 509.366 13.3892 501.653 10.0752 493.658C6.75093 485.641 4.21165 477.26 2.52904 468.747C0.854107 460.293 0.00383617 451.601 -5.794e-06 442.914L-1.93603e-05 132.553C0.00254132 123.865 0.854091 115.173 2.52774 106.719C4.21035 98.205 6.74963 89.8239 10.0739 81.8091C13.3879 73.8122 17.5176 66.0996 22.3465 58.8864C27.1587 51.6962 32.7021 44.9465 38.823 38.8231C44.9452 32.7021 51.6949 27.1575 58.885 22.3465C66.0995 17.5176 73.8122 13.388 81.8078 10.074C89.8226 6.7497 98.2037 4.21046 106.718 2.52784C115.048 0.878522 123.608 0.0282216 132.167 4.95666e-05L132.167 0.266409C123.622 0.294581 115.078 1.14232 106.769 2.78908C98.2753 4.46785 89.9122 7.00193 81.9089 10.3211C73.9261 13.6299 66.2289 17.7508 59.0323 22.5681C51.8562 27.3714 45.1194 32.9032 39.01 39.0126C32.9019 45.122 27.3687 51.8588 22.5654 59.0349C17.7481 66.2315 13.6274 73.9287 10.3185 81.9115C6.99935 89.9135 4.46518 98.278 2.78641 106.772C1.11532 115.205 0.266337 123.88 0.263777 132.554L0.26379 442.915C0.266352 451.59 1.11534 460.264 2.78771 468.697C4.46648 477.191 7.00065 485.556 10.3198 493.558C13.6287 501.542 17.7494 509.238 22.5667 516.434C27.37 523.61 32.9019 530.347 39.0113 536.457C45.1207 542.565 51.8575 548.098 59.0336 552.901C66.2302 557.719 73.9274 561.839 81.9102 565.148C89.9122 568.467 98.2767 571.001 106.77 572.68C115.204 574.351 123.878 575.2 132.551 575.203C141.226 575.2 149.9 574.351 158.333 572.679C166.827 571 175.192 568.466 183.194 565.147C191.176 561.838 198.874 557.717 206.07 552.9C213.246 548.097 219.983 542.565 226.093 536.455C232.201 530.346 237.734 523.609 242.537 516.433C247.354 509.236 251.475 501.539 254.784 493.556C258.103 485.554 260.637 477.19 262.316 468.696C263.987 460.261 264.836 451.588 264.84 442.914C264.844 437.992 265.324 433.082 266.267 428.322C267.212 423.547 268.634 418.849 270.496 414.361C272.358 409.869 274.678 405.534 277.394 401.477C280.108 397.422 283.237 393.611 286.696 390.15C290.156 386.692 293.967 383.563 298.024 380.848C302.08 378.132 306.415 375.812 310.907 373.95C315.395 372.088 320.093 370.664 324.869 369.72C329.628 368.778 334.537 368.298 339.46 368.294C344.383 368.298 349.292 368.778 354.05 369.72C358.826 370.665 363.524 372.088 368.012 373.95C372.504 375.812 376.839 378.132 380.895 380.848C384.951 383.562 388.762 386.691 392.223 390.15C395.68 393.61 398.81 397.421 401.525 401.477C404.241 405.535 406.561 409.87 408.423 414.361C410.285 418.85 411.709 423.547 412.653 428.322C413.571 432.958 414.05 437.736 414.078 442.53L413.811 442.53L413.814 442.526Z" fill="url(#paint7_linear_558_768)"/>
</g>
<defs>
<linearGradient id="paint0_linear_558_768" x1="264.975" y1="517.528" x2="264.975" y2="57.9292" gradientUnits="userSpaceOnUse">
<stop stop-color="white"/>
<stop offset="0.76" stop-color="#161616"/>
<stop offset="1" stop-color="#171717"/>
</linearGradient>
<linearGradient id="paint1_linear_558_768" x1="256.698" y1="525.809" x2="256.698" y2="49.6564" gradientUnits="userSpaceOnUse">
<stop stop-color="white"/>
<stop offset="0.76" stop-color="#161616"/>
<stop offset="1" stop-color="#171717"/>
</linearGradient>
<linearGradient id="paint2_linear_558_768" x1="248.423" y1="534.081" x2="248.423" y2="41.3745" gradientUnits="userSpaceOnUse">
<stop stop-color="white"/>
<stop offset="0.76" stop-color="#161616"/>
<stop offset="1" stop-color="#171717"/>
</linearGradient>
<linearGradient id="paint3_linear_558_768" x1="240.146" y1="542.358" x2="240.146" y2="33.0998" gradientUnits="userSpaceOnUse">
<stop stop-color="white"/>
<stop offset="0.76" stop-color="#161616"/>
<stop offset="1" stop-color="#171717"/>
</linearGradient>
<linearGradient id="paint4_linear_558_768" x1="231.87" y1="550.635" x2="231.87" y2="24.8252" gradientUnits="userSpaceOnUse">
<stop stop-color="white"/>
<stop offset="0.76" stop-color="#161616"/>
<stop offset="1" stop-color="#171717"/>
</linearGradient>
<linearGradient id="paint5_linear_558_768" x1="223.593" y1="558.912" x2="223.593" y2="16.5495" gradientUnits="userSpaceOnUse">
<stop stop-color="white"/>
<stop offset="0.76" stop-color="#161616"/>
<stop offset="1" stop-color="#171717"/>
</linearGradient>
<linearGradient id="paint6_linear_558_768" x1="215.317" y1="567.187" x2="215.317" y2="8.27149" gradientUnits="userSpaceOnUse">
<stop stop-color="white"/>
<stop offset="0.76" stop-color="#161616"/>
<stop offset="1" stop-color="#171717"/>
</linearGradient>
<linearGradient id="paint7_linear_558_768" x1="207.041" y1="575.464" x2="207.041" y2="-0.00507021" gradientUnits="userSpaceOnUse">
<stop stop-color="white"/>
<stop offset="0.76" stop-color="#161616"/>
<stop offset="1" stop-color="#171717"/>
</linearGradient>
</defs>
</svg>
