<svg width="35" height="35" viewBox="0 0 35 35" fill="none" xmlns="http://www.w3.org/2000/svg">
<circle cx="17.5" cy="17.5" r="17.25" stroke="#B6B6B6" stroke-width="0.5"/>
<path d="M20.7607 13.5689C20.7607 13.3566 20.8451 13.1529 20.9952 13.0028C21.1454 12.8527 21.349 12.7683 21.5613 12.7683C21.7736 12.7683 21.9773 12.8527 22.1274 13.0028C22.2775 13.1529 22.3619 13.3566 22.3619 13.5689C22.3619 13.7812 22.2775 13.9848 22.1274 14.135C21.9773 14.2851 21.7736 14.3695 21.5613 14.3695C21.349 14.3695 21.1454 14.2851 20.9952 14.135C20.8451 13.9848 20.7607 13.7812 20.7607 13.5689Z" fill="#B6B6B6"/>
<path fill-rule="evenodd" clip-rule="evenodd" d="M17.5586 13.769C16.55 13.769 15.5828 14.1697 14.8697 14.8828C14.1565 15.596 13.7559 16.5632 13.7559 17.5718C13.7559 18.5803 14.1565 19.5476 14.8697 20.2607C15.5828 20.9739 16.55 21.3745 17.5586 21.3745C18.5671 21.3745 19.5344 20.9739 20.2475 20.2607C20.9607 19.5476 21.3613 18.5803 21.3613 17.5718C21.3613 16.5632 20.9607 15.596 20.2475 14.8828C19.5344 14.1697 18.5671 13.769 17.5586 13.769ZM14.9567 17.5718C14.9567 16.8817 15.2308 16.2199 15.7188 15.732C16.2067 15.244 16.8685 14.9699 17.5586 14.9699C18.2487 14.9699 18.9105 15.244 19.3984 15.732C19.8863 16.2199 20.1605 16.8817 20.1605 17.5718C20.1605 18.2618 19.8863 18.9236 19.3984 19.4116C18.9105 19.8995 18.2487 20.1737 17.5586 20.1737C16.8685 20.1737 16.2067 19.8995 15.7188 19.4116C15.2308 18.9236 14.9567 18.2618 14.9567 17.5718Z" fill="#B6B6B6"/>
<path fill-rule="evenodd" clip-rule="evenodd" d="M21.768 10.2327C18.9703 9.92243 16.1469 9.92243 13.3491 10.2327C11.7384 10.4128 10.4375 11.6818 10.2485 13.3005C9.91716 16.1383 9.91716 19.0049 10.2485 21.8427C10.4375 23.4614 11.7376 24.7304 13.3491 24.9105C16.1469 25.2201 18.9703 25.2201 21.768 24.9105C23.3788 24.7304 24.6797 23.4614 24.8686 21.8427C25.2 19.0049 25.2 16.1383 24.8686 13.3005C24.6797 11.6818 23.3796 10.4128 21.768 10.2327ZM13.482 11.4256C16.1914 11.1251 18.9257 11.1251 21.6351 11.4256C22.6999 11.5457 23.5525 12.3855 23.6766 13.4406C23.9977 16.1852 23.9977 18.958 23.6766 21.7026C23.6124 22.219 23.376 22.6987 23.0056 23.0642C22.6352 23.4296 22.1523 23.6596 21.6351 23.7168C18.9257 24.0173 16.1914 24.0173 13.482 23.7168C12.9648 23.6596 12.482 23.4296 12.1116 23.0642C11.7412 22.6987 11.5048 22.219 11.4406 21.7026C11.1194 18.958 11.1194 16.1852 11.4406 13.4406C11.5048 12.9242 11.7412 12.4445 12.1116 12.079C12.482 11.7136 12.9648 11.4828 13.482 11.4256Z" fill="#B6B6B6"/>
</svg>
