<svg width="21" height="21" viewBox="0 0 21 21" fill="none" xmlns="http://www.w3.org/2000/svg">
<path d="M13.581 14.8773L13.7629 14.9L13.8925 14.7703L15.6182 13.0446C15.6185 13.0444 15.6188 13.0441 15.619 13.0438C15.7999 12.8655 16.0286 12.7434 16.2774 12.6924C16.5263 12.6413 16.7846 12.6635 17.0211 12.7563C17.0214 12.7564 17.0217 12.7565 17.022 12.7567L19.1234 13.5957C19.1237 13.5958 19.1239 13.5959 19.1242 13.596C19.3628 13.693 19.5674 13.8584 19.7122 14.0714C19.8569 14.2842 19.9355 14.535 19.9382 14.7923V18.6446C19.9366 18.8193 19.8998 18.9919 19.8299 19.1521C19.7599 19.3126 19.6581 19.4574 19.5306 19.5776C19.4032 19.6977 19.2527 19.7909 19.0883 19.8514C18.9245 19.9117 18.7503 19.9383 18.576 19.9297C11.3234 19.478 6.99378 16.1908 4.39652 12.4437C1.78776 8.67999 0.914128 4.43119 0.636019 2.07029C0.615942 1.88848 0.634506 1.70448 0.6905 1.53033C0.746607 1.35584 0.839026 1.1952 0.961675 1.05898C1.08432 0.922769 1.23443 0.814067 1.4021 0.740029C1.56978 0.665991 1.75123 0.628294 1.93452 0.629419L1.93452 0.629426H1.93682H5.66086C5.91822 0.630291 6.16945 0.708078 6.38227 0.8528C6.59524 0.997619 6.76002 1.20284 6.8554 1.44207L6.85547 1.44223L7.69601 3.54746L7.696 3.54746L7.69703 3.54998C7.79279 3.78485 7.81722 4.04273 7.76727 4.2914C7.71733 4.54002 7.59527 4.76842 7.41632 4.94808C7.41627 4.94812 7.41623 4.94816 7.41619 4.9482L5.68932 6.67508L5.55594 6.80846L5.58351 6.99506L5.95448 6.94024C5.58351 6.99506 5.58354 6.99526 5.58357 6.99548L5.58366 6.99606L5.5839 6.99768L5.58468 7.00274L5.58745 7.02007C5.58985 7.03477 5.59339 7.05571 5.59822 7.08251C5.60787 7.13611 5.62267 7.21316 5.64378 7.31056C5.68597 7.50528 5.7535 7.7818 5.85575 8.11512C6.05997 8.78081 6.40434 9.67842 6.96596 10.6048C8.09301 12.4638 10.1009 14.4433 13.581 14.8773Z" stroke="white" stroke-width="0.75"/>
</svg>
