<svg width="12" height="14" viewBox="0 0 12 14" fill="none" xmlns="http://www.w3.org/2000/svg">
<path d="M7.86003 5.89994C7.86003 6.41977 7.65353 6.9183 7.28596 7.28587C6.91839 7.65344 6.41986 7.85994 5.90003 7.85994C5.38021 7.85994 4.88167 7.65344 4.5141 7.28587C4.14653 6.9183 3.94003 6.41977 3.94003 5.89994C3.94003 5.38012 4.14653 4.88158 4.5141 4.51401C4.88167 4.14644 5.38021 3.93994 5.90003 3.93994C6.41986 3.93994 6.91839 4.14644 7.28596 4.51401C7.65353 4.88158 7.86003 5.38012 7.86003 5.89994Z" stroke="white" stroke-linecap="round" stroke-linejoin="round"/>
<path d="M10.8 5.9C10.8 10.5661 5.9 13.25 5.9 13.25C5.9 13.25 1 10.5661 1 5.9C1 4.60044 1.51625 3.3541 2.43518 2.43518C3.35411 1.51625 4.60044 1 5.9 1C7.19956 1 8.4459 1.51625 9.36482 2.43518C10.2838 3.3541 10.8 4.60044 10.8 5.9Z" stroke="white" stroke-linecap="round" stroke-linejoin="round"/>
</svg>
