<svg width="35" height="35" viewBox="0 0 35 35" fill="none" xmlns="http://www.w3.org/2000/svg">
<circle cx="17.5" cy="17.5" r="17.25" stroke="#B6B6B6" stroke-width="0.5"/>
<path d="M23.4038 9.93535C22.4816 9.84264 21.5546 9.79751 20.6272 9.80016C17.5524 9.80016 15.6416 11.6565 15.6416 14.6446V16.6733H13.0587C12.9375 16.6733 12.8212 16.719 12.7355 16.8002C12.6497 16.8815 12.6016 16.9917 12.6016 17.1066V20.4431C12.6016 20.558 12.6497 20.6683 12.7355 20.7495C12.8212 20.8308 12.9375 20.8764 13.0587 20.8764H15.6416V27.5667C15.6416 27.6817 15.6897 27.7919 15.7755 27.8731C15.8612 27.9544 15.9775 28.0001 16.0987 28.0001H19.7357C19.857 28.0001 19.9733 27.9544 20.059 27.8731C20.1447 27.7919 20.1929 27.6817 20.1929 27.5667V20.8764H22.7675C22.8785 20.8765 22.9857 20.8383 23.0692 20.7689C23.1526 20.6995 23.2066 20.6038 23.221 20.4995L23.6754 17.163C23.6839 17.1018 23.6784 17.0396 23.6595 16.9806C23.6406 16.9216 23.6086 16.8671 23.5657 16.8208C23.5227 16.7744 23.4699 16.7373 23.4106 16.7119C23.3513 16.6864 23.287 16.6733 23.2219 16.6733H20.1929V14.9756C20.1929 14.135 20.3712 13.784 21.4802 13.784H23.3444C23.4657 13.784 23.5819 13.7384 23.6677 13.6571C23.7534 13.5758 23.8016 13.4656 23.8016 13.3507V10.3652C23.8016 10.26 23.7613 10.1584 23.6881 10.0793C23.6149 10.0002 23.5139 9.94903 23.4038 9.93535ZM22.8873 12.9165L21.4793 12.9174C19.5072 12.9174 19.2786 14.0925 19.2786 14.9756V17.1075C19.2786 17.2223 19.3266 17.3324 19.4122 17.4136C19.4977 17.4948 19.6137 17.5406 19.7348 17.5408H22.7026L22.3652 20.0107H19.7357C19.6145 20.0107 19.4982 20.0563 19.4125 20.1376C19.3268 20.2189 19.2786 20.3291 19.2786 20.444V27.1326H16.5558V20.444C16.5558 20.3291 16.5077 20.2189 16.422 20.1376C16.3362 20.0563 16.2199 20.0107 16.0987 20.0107H13.5168V17.5408H16.0987C16.2199 17.5408 16.3362 17.4952 16.422 17.4139C16.5077 17.3326 16.5558 17.2224 16.5558 17.1075V14.6446C16.5558 12.1539 18.0781 10.6668 20.6272 10.6668C21.5497 10.6668 22.3826 10.7144 22.8873 10.756V12.9165Z" fill="#B6B6B6"/>
</svg>
