<svg width="1175" height="280" viewBox="0 0 1175 280" fill="none" xmlns="http://www.w3.org/2000/svg">
<path d="M762.081 129.871L761.776 130.289L762.205 130.579C783.649 145.097 797.853 169.964 797.853 198.213C797.853 242.999 762.269 279.355 718.552 279.355H457.223V163.213V162.713H456.723H405.581C405.843 137.393 425.974 116.998 450.78 116.998H456.723H457.223V116.498V0.500018L698.46 0.500018C742.178 0.500018 777.761 36.8567 777.761 81.5703C777.761 99.6841 771.925 116.359 762.081 129.871ZM502.424 46.1426H501.924V46.6426V116.498V116.998H502.424L698.531 116.998C717.634 116.998 733.201 101.218 733.201 81.6426C733.201 62.0697 717.636 46.1426 698.531 46.1426L502.424 46.1426ZM501.854 233.213V233.713H502.354H718.552C737.655 233.713 753.222 217.932 753.222 198.285C753.222 178.641 737.658 162.713 718.552 162.713H718.481H502.354H501.854V163.213V233.213Z" stroke="#2A2A2A"/>
<path d="M878.642 124.453V125.257L879.364 124.901C889.556 119.871 901.012 116.998 913.029 116.998L1095.27 116.998H1095.34C1114.45 116.998 1130.01 101.072 1130.01 81.5703C1130.01 62.069 1114.45 46.1426 1095.34 46.1426L879.142 46.1426H878.642V46.6426V124.453ZM833.941 279.5V0.500037L1095.27 0.500037C1138.99 0.500037 1174.5 36.9278 1174.5 81.6426C1174.5 126.357 1138.92 162.785 1095.2 162.785H913.242C894.137 162.785 878.572 178.712 878.572 198.213V279.5H833.941Z" stroke="#2A2A2A"/>
<path d="M208.624 140.145V140.659L209.137 140.644C209.502 140.634 209.867 140.622 210.231 140.609C233.369 141.485 256.249 149.752 275.518 165.55C275.518 165.551 275.519 165.551 275.52 165.552L410.371 279.355H340.256L247.366 201.012L247.36 201.008C223.121 181.187 189.04 181.188 164.591 201.225L164.586 201.229L71.907 279.355H1.79321L136.432 165.841C136.432 165.84 136.433 165.84 136.434 165.839C156.155 149.641 179.535 141.364 203.055 140.644L203.053 139.645C179.606 138.997 156.297 130.721 136.717 114.667C136.716 114.666 136.715 114.666 136.714 114.665L1.36825 0.5L71.4825 0.5L164.868 79.2768L164.874 79.2817C189.113 99.1025 223.194 99.101 247.643 79.0644L247.649 79.0598L340.752 0.5L410.865 0.5L275.732 114.448C275.731 114.449 275.73 114.45 275.729 114.45C256.321 130.391 233.37 138.73 210.231 139.608C209.867 139.594 209.502 139.583 209.137 139.573L208.624 139.558V140.072V140.145Z" stroke="#2A2A2A"/>
</svg>
