<svg width="280" height="1175" viewBox="0 0 280 1175" fill="none" xmlns="http://www.w3.org/2000/svg">
<mask id="mask0_582_566" style="mask-type:alpha" maskUnits="userSpaceOnUse" x="0" y="0" width="280" height="1175">
<rect width="280" height="1175" fill="#D9D9D9"/>
</mask>
<g mask="url(#mask0_582_566)">
<path d="M129.871 412.919L130.289 413.224L130.579 412.796C145.096 391.351 169.964 377.147 198.213 377.147C242.999 377.147 279.355 412.731 279.355 456.448L279.355 717.777L163.213 717.777L162.713 717.777L162.713 718.277L162.713 769.419C137.393 769.157 116.998 749.027 116.998 724.22L116.998 718.277L116.998 717.777L116.498 717.777L0.499998 717.777L0.499987 476.54C0.499985 432.823 36.8566 397.239 81.5702 397.239C99.6841 397.239 116.358 403.075 129.871 412.919ZM46.1426 672.576L46.1426 673.076L46.6426 673.076L116.498 673.076L116.998 673.076L116.998 672.576L116.998 476.469C116.998 457.366 101.218 441.799 81.6425 441.799C62.0696 441.799 46.1425 457.364 46.1425 476.469L46.1426 672.576ZM233.213 673.146L233.713 673.146L233.713 672.646L233.713 456.448C233.713 437.345 217.932 421.778 198.285 421.778C178.641 421.778 162.713 437.342 162.713 456.448L162.713 456.519L162.713 672.646L162.713 673.146L163.213 673.146L233.213 673.146Z" stroke="#2A2A2A"/>
<path d="M124.452 296.358L125.257 296.358L124.901 295.636C119.871 285.444 116.998 273.988 116.998 261.971L116.998 79.7302L116.998 79.6594C116.998 60.5547 101.072 44.9893 81.5702 44.9893C62.0689 44.9893 46.1425 60.5547 46.1425 79.6595L46.1426 295.858L46.1426 296.358L46.6426 296.358L124.452 296.358ZM279.5 341.059L0.5 341.059L0.499989 79.7302C0.499987 36.014 36.9278 0.500059 81.6425 0.500057C126.357 0.500056 162.785 36.0843 162.785 79.801L162.785 261.758C162.785 280.863 178.712 296.428 198.213 296.428L279.5 296.428L279.5 341.059Z" stroke="#2A2A2A"/>
<path d="M140.145 966.376L140.659 966.376L140.644 965.863C140.634 965.498 140.622 965.133 140.609 964.769C141.485 941.631 149.752 918.751 165.55 899.482C165.551 899.482 165.551 899.481 165.552 899.48L279.355 764.629L279.355 834.744L201.012 927.634L201.008 927.64C181.187 951.879 181.188 985.96 201.225 1010.41L201.229 1010.41L279.355 1103.09L279.355 1173.21L165.841 1038.57C165.84 1038.57 165.84 1038.57 165.839 1038.57C149.641 1018.84 141.364 995.465 140.644 971.945L139.645 971.947C138.997 995.394 130.721 1018.7 114.667 1038.28C114.666 1038.28 114.666 1038.28 114.665 1038.29L0.5 1173.63L0.499997 1103.52L79.2768 1010.13L79.2817 1010.13C99.1025 985.887 99.1009 951.806 79.0644 927.357L79.0598 927.351L0.499985 834.248L0.499982 764.135L114.448 899.268C114.449 899.269 114.45 899.27 114.45 899.271C130.391 918.679 138.73 941.63 139.608 964.769C139.594 965.133 139.583 965.498 139.573 965.863L139.558 966.376L140.072 966.376L140.145 966.376Z" stroke="#2A2A2A"/>
</g>
</svg>
