<svg width="100" height="24" viewBox="0 0 100 24" fill="none" xmlns="http://www.w3.org/2000/svg">
<path d="M64.892 10.7731C65.7349 9.64793 66.2346 8.25939 66.2346 6.75116C66.2346 3.02844 63.1881 0 59.4431 0H38.8698V9.64195H38.3641C36.2146 9.64195 34.4746 11.3716 34.4746 13.5083H38.8698V23.1622H61.153C64.898 23.1622 67.9446 20.1338 67.9446 16.4051C67.9446 14.0529 66.7283 11.9821 64.892 10.7731ZM42.7593 3.86037H59.4491C61.0507 3.86037 62.3572 5.15913 62.3572 6.75714C62.3572 8.35516 61.0507 9.64195 59.4491 9.64195H42.7593V3.86037ZM61.153 19.3018H42.7533V13.5083H61.147H61.153C62.7546 13.5083 64.0611 14.8071 64.0611 16.4111C64.0611 18.0151 62.7546 19.3018 61.153 19.3018Z" fill="white"/>
<path d="M93.2139 0H70.9307V23.1742H74.8141V16.4051C74.8141 14.813 76.1206 13.5143 77.7222 13.5143H93.2078C96.9528 13.5143 99.9994 10.4799 99.9994 6.75714C99.9994 3.03443 96.9588 0 93.2139 0ZM93.2139 9.64195H77.7041C76.6746 9.64195 75.6932 9.88135 74.8201 10.3003V3.86037H93.2199C94.8214 3.86037 96.128 5.15913 96.128 6.75116C96.128 8.34319 94.8214 9.64195 93.2199 9.64195H93.2139Z" fill="white"/>
<path d="M17.7977 11.5991C19.8086 11.5452 21.8075 10.8509 23.4934 9.50429L35.0835 0H28.9844L21.0489 6.51175C18.9838 8.15765 16.1058 8.15765 14.0587 6.52971L6.09913 0H0L11.6082 9.52224C13.282 10.8569 15.2749 11.5452 17.2799 11.5991C15.2689 11.6589 13.27 12.3472 11.5841 13.6938L0.0361251 23.1622H6.13525L14.0346 16.6864C16.0998 15.0405 18.9777 15.0405 21.0248 16.6684L28.9423 23.1622H35.0414L23.4753 13.6699C21.8015 12.3352 19.8086 11.6469 17.7977 11.5931V11.5991Z" fill="white"/>
</svg>
