<svg width="65" height="16" viewBox="0 0 65 16" fill="none" xmlns="http://www.w3.org/2000/svg">
<path d="M38.1167 14.3998C37.3167 14.3998 36.67 14.1731 36.1767 13.7198C35.6967 13.2531 35.4567 12.6398 35.4567 11.8798V5.55981L35.7167 5.83981H33.6367V4.39981H34.9367C35.1367 4.39981 35.2901 4.34647 35.3967 4.23981C35.5034 4.13314 35.5567 3.9798 35.5567 3.77981V1.7998H37.0367V4.65981L36.7767 4.39981H39.5767V5.83981H36.7767L37.0367 5.55981V11.4998C37.0367 11.9265 37.1701 12.2731 37.4367 12.5398C37.7034 12.7931 38.0567 12.9198 38.4967 12.9198H39.4567V14.3998H38.1167Z" fill="white"/>
<path d="M26.9137 9.4399L23.5537 4.3999H25.4537L27.8937 8.1799H28.0337L30.4737 4.3999H32.2337L28.9537 9.3199L32.3537 14.3999H30.4137L27.9537 10.5799H27.8137L25.3537 14.3999H23.5937L26.9137 9.4399Z" fill="white"/>
<path d="M18.015 14.6399C17.1883 14.6399 16.4617 14.4866 15.835 14.1799C15.2217 13.8732 14.7417 13.4399 14.395 12.8799C14.0483 12.3199 13.875 11.6666 13.875 10.9199V7.87991C13.875 7.13325 14.0417 6.47991 14.375 5.91991C14.7217 5.35991 15.2017 4.92658 15.815 4.61991C16.4283 4.31325 17.1417 4.15991 17.955 4.15991C18.7683 4.15991 19.4817 4.31325 20.095 4.61991C20.7083 4.92658 21.1817 5.35991 21.515 5.91991C21.8483 6.47991 22.015 7.13325 22.015 7.87991V9.99991H15.055V8.67991H20.695L20.415 9.05991V7.81991C20.415 7.13991 20.1883 6.59325 19.735 6.17991C19.295 5.76658 18.7017 5.55991 17.955 5.55991C17.2083 5.55991 16.6083 5.76658 16.155 6.17991C15.7017 6.57991 15.475 7.12658 15.475 7.81991V10.9599C15.475 11.6532 15.7017 12.2066 16.155 12.6199C16.6217 13.0332 17.2417 13.2399 18.015 13.2399C18.735 13.2399 19.315 13.0799 19.755 12.7599C20.195 12.4266 20.415 11.9932 20.415 11.4599V11.4199H22.015V11.4999C22.015 12.1132 21.8483 12.6599 21.515 13.1399C21.1817 13.6199 20.7083 13.9932 20.095 14.2599C19.495 14.5132 18.8017 14.6399 18.015 14.6399Z" fill="white"/>
<path d="M0.879883 1H2.91988L8.93988 11.68H9.09988L8.99988 10.82V1H10.6799V14.4H8.63988L2.63988 3.72H2.45988L2.55988 4.58V14.4H0.879883V1Z" fill="white"/>
<path d="M65 8L53 14.9282L53 1.0718L65 8Z" fill="white"/>
</svg>
