<svg width="64" height="16" viewBox="0 0 64 16" fill="none" xmlns="http://www.w3.org/2000/svg">
<path d="M54.5166 4.3999H56.2966L58.9966 12.6199H59.1166L61.7966 4.3999H63.5166L59.9766 14.3999H58.0566L54.5166 4.3999Z" fill="white"/>
<path d="M48.7806 14.6399C47.954 14.6399 47.2273 14.4866 46.6006 14.1799C45.9873 13.8732 45.5073 13.4399 45.1606 12.8799C44.814 12.3199 44.6406 11.6666 44.6406 10.9199V7.87991C44.6406 7.13325 44.8073 6.47991 45.1406 5.91991C45.4873 5.35991 45.9673 4.92658 46.5806 4.61991C47.194 4.31325 47.9073 4.15991 48.7206 4.15991C49.534 4.15991 50.2473 4.31325 50.8606 4.61991C51.474 4.92658 51.9473 5.35991 52.2806 5.91991C52.614 6.47991 52.7806 7.13325 52.7806 7.87991V9.99991H45.8206V8.67991H51.4606L51.1806 9.05991V7.81991C51.1806 7.13991 50.954 6.59325 50.5006 6.17991C50.0606 5.76658 49.4673 5.55991 48.7206 5.55991C47.974 5.55991 47.374 5.76658 46.9206 6.17991C46.4673 6.57991 46.2406 7.12658 46.2406 7.81991V10.9599C46.2406 11.6532 46.4673 12.2066 46.9206 12.6199C47.3873 13.0332 48.0073 13.2399 48.7806 13.2399C49.5006 13.2399 50.0806 13.0799 50.5206 12.7599C50.9606 12.4266 51.1806 11.9932 51.1806 11.4599V11.4199H52.7806V11.4999C52.7806 12.1132 52.614 12.6599 52.2806 13.1399C51.9473 13.6199 51.474 13.9932 50.8606 14.2599C50.2606 14.5132 49.5673 14.6399 48.7806 14.6399Z" fill="white"/>
<path d="M37.9082 4.39991H39.5082V14.3999H37.9082V4.39991ZM39.1682 6.25991H39.6082C39.8215 5.59325 40.1882 5.07991 40.7082 4.71991C41.2415 4.34658 41.8815 4.15991 42.6282 4.15991H42.9882V5.77991H42.5882C41.9615 5.77991 41.4149 5.91325 40.9482 6.17991C40.4815 6.43325 40.1215 6.77325 39.8682 7.19991C39.6282 7.62658 39.5082 8.08658 39.5082 8.57991H39.1682V6.25991Z" fill="white"/>
<path d="M27.1199 8.26H30.7999C31.6532 8.26 32.3266 8.00667 32.8199 7.5C33.3266 6.98 33.5799 6.28667 33.5799 5.42C33.5799 4.55333 33.3266 3.86 32.8199 3.34C32.3266 2.82 31.6532 2.56 30.7999 2.56H27.1199V1H30.9199C31.7865 1 32.5465 1.18667 33.1999 1.56C33.8532 1.92 34.3532 2.43333 34.6999 3.1C35.0599 3.75333 35.2399 4.52667 35.2399 5.42C35.2399 6.3 35.0599 7.07333 34.6999 7.74C34.3532 8.40667 33.8532 8.92 33.1999 9.28C32.5465 9.64 31.7865 9.82 30.9199 9.82H27.1199V8.26ZM25.8799 1H27.5599V14.4H25.8799V1Z" fill="white"/>
<path d="M3.49691e-07 8L12 14.9282L12 1.0718L3.49691e-07 8Z" fill="white"/>
</svg>
