<svg width="704" height="88" viewBox="0 0 704 88" fill="none" xmlns="http://www.w3.org/2000/svg">
<path d="M697.984 70C694.384 70 691.45 68.9667 689.184 66.9C686.984 64.7667 685.884 61.9667 685.884 58.5V22.9L686.584 23.7H676.384V20H683.684C684.484 20 685.084 19.8 685.484 19.4C685.95 18.9333 686.184 18.3 686.184 17.5V7H689.784V20.8L689.084 20H703.584V23.7H689.084L689.784 22.9V57.7C689.784 60.3 690.584 62.4 692.184 64C693.784 65.5333 695.917 66.3 698.584 66.3H702.984V70H697.984Z" fill="#757575"/>
<path d="M647.582 71.2C643.848 71.2 640.548 70.5 637.682 69.1C634.815 67.6333 632.582 65.6 630.982 63C629.448 60.3333 628.682 57.3 628.682 53.9V36.1C628.682 32.7 629.448 29.7 630.982 27.1C632.582 24.4333 634.815 22.4 637.682 21C640.548 19.5333 643.848 18.8 647.582 18.8C651.382 18.8 654.715 19.5333 657.582 21C660.448 22.4 662.648 24.4333 664.182 27.1C665.782 29.7 666.582 32.7 666.582 36.1V37H662.682V36.3C662.682 32.1667 661.282 28.8333 658.482 26.3C655.748 23.7667 652.115 22.5 647.582 22.5C643.115 22.5 639.515 23.7667 636.782 26.3C634.048 28.8333 632.682 32.1667 632.682 36.3V53.7C632.682 57.8333 634.048 61.1667 636.782 63.7C639.515 66.2333 643.115 67.5 647.582 67.5C652.115 67.5 655.748 66.2333 658.482 63.7C661.282 61.1667 662.682 57.8333 662.682 53.7V53H666.582V53.9C666.582 57.3 665.782 60.3333 664.182 63C662.648 65.6 660.415 67.6333 657.482 69.1C654.615 70.5 651.315 71.2 647.582 71.2Z" fill="#757575"/>
<path d="M595.914 71.2C591.981 71.2 588.548 70.5 585.614 69.1C582.681 67.6333 580.381 65.6 578.714 63C577.114 60.3333 576.314 57.2333 576.314 53.7V36.3C576.314 32.8333 577.114 29.7667 578.714 27.1C580.314 24.4333 582.548 22.4 585.414 21C588.348 19.5333 591.748 18.8 595.614 18.8C599.481 18.8 602.848 19.5333 605.714 21C608.648 22.4 610.914 24.4333 612.514 27.1C614.114 29.7667 614.914 32.8333 614.914 36.3V46.3H579.114V42.9H612.114L610.914 44.2V36.4C610.914 32.2 609.514 28.8333 606.714 26.3C603.914 23.7 600.214 22.4 595.614 22.4C591.014 22.4 587.314 23.6667 584.514 26.2C581.714 28.7333 580.314 32.1333 580.314 36.4V53.6C580.314 57.8 581.714 61.2 584.514 63.8C587.381 66.3333 591.181 67.6 595.914 67.6C600.381 67.6 603.981 66.5333 606.714 64.4C609.514 62.2 610.914 59.3333 610.914 55.8V55.4H614.914V56C614.914 58.9333 614.114 61.5667 612.514 63.9C610.914 66.2333 608.681 68.0333 605.814 69.3C602.948 70.5667 599.648 71.2 595.914 71.2Z" fill="#757575"/>
<path d="M543.241 84.5H547.641C550.241 84.5 552.341 83.7 553.941 82.1C555.541 80.5667 556.341 78.5 556.341 75.9V20H560.341V76.5C560.341 79.9667 559.208 82.7333 556.941 84.8C554.741 86.9333 551.808 88 548.141 88H543.241V84.5ZM558.341 8.2C557.341 8.2 556.541 7.9 555.941 7.3C555.341 6.7 555.041 5.93333 555.041 5C555.041 4.06666 555.341 3.33333 555.941 2.8C556.541 2.2 557.341 1.89999 558.341 1.89999C559.275 1.89999 560.041 2.2 560.641 2.8C561.241 3.33333 561.541 4.06666 561.541 5C561.541 5.93333 561.241 6.7 560.641 7.3C560.041 7.9 559.275 8.2 558.341 8.2Z" fill="#757575"/>
<path d="M520.275 71.2C516.475 71.2 513.108 70.5 510.175 69.1C507.241 67.6333 504.975 65.5667 503.375 62.9C501.775 60.2333 500.975 57.1667 500.975 53.7V36.3C500.975 32.8333 501.775 29.7667 503.375 27.1C504.975 24.4333 507.241 22.4 510.175 21C513.108 19.5333 516.475 18.8 520.275 18.8C524.141 18.8 527.508 19.5333 530.375 21C533.308 22.4 535.541 24.4333 537.075 27.1C538.675 29.7667 539.475 32.8333 539.475 36.3V53.7C539.475 57.1667 538.675 60.2333 537.075 62.9C535.541 65.5667 533.308 67.6333 530.375 69.1C527.508 70.5 524.141 71.2 520.275 71.2ZM520.275 67.5C524.941 67.5 528.641 66.2333 531.375 63.7C534.175 61.1 535.575 57.7 535.575 53.5V36.5C535.575 32.3 534.175 28.9333 531.375 26.4C528.575 23.8 524.875 22.5 520.275 22.5C515.675 22.5 511.975 23.8 509.175 26.4C506.375 28.9333 504.975 32.3 504.975 36.5V53.5C504.975 57.7 506.375 61.1 509.175 63.7C511.975 66.2333 515.675 67.5 520.275 67.5Z" fill="#757575"/>
<path d="M469.076 20H473.076V70H469.076V20ZM471.876 29.8H473.376C474.576 26.3333 476.643 23.6333 479.576 21.7C482.576 19.7667 486.176 18.8 490.376 18.8H492.076V22.8H490.276C486.81 22.8 483.776 23.5667 481.176 25.1C478.576 26.5667 476.576 28.5333 475.176 31C473.776 33.4 473.076 35.9333 473.076 38.6H471.876V29.8Z" fill="#757575"/>
<path d="M412.812 40.7H433.312C438.312 40.7 442.279 39.1667 445.212 36.1C448.212 33.0333 449.712 28.9333 449.712 23.8C449.712 18.7333 448.212 14.6667 445.212 11.6C442.279 8.46666 438.312 6.89999 433.312 6.89999H412.812V3H433.512C437.579 3 441.145 3.86666 444.212 5.59999C447.279 7.33333 449.645 9.76666 451.312 12.9C452.979 16.0333 453.812 19.6667 453.812 23.8C453.812 27.9333 452.979 31.6 451.312 34.8C449.645 37.9333 447.279 40.3667 444.212 42.1C441.145 43.7667 437.579 44.6 433.512 44.6H412.812V40.7ZM409.912 3H414.112V70H409.912V3Z" fill="#757575"/>
<path d="M347.229 20H351.229V70H347.229V20ZM350.029 29.8H351.529C352.729 26.3333 354.795 23.6333 357.729 21.7C360.729 19.7667 364.329 18.8 368.529 18.8H370.229V22.8H368.429C364.962 22.8 361.929 23.5667 359.329 25.1C356.729 26.5667 354.729 28.5333 353.329 31C351.929 33.4 351.229 35.9333 351.229 38.6H350.029V29.8Z" fill="#757575"/>
<path d="M311.961 71.2C308.028 71.2 304.595 70.5 301.661 69.1C298.728 67.6333 296.428 65.6 294.761 63C293.161 60.3333 292.361 57.2333 292.361 53.7V36.3C292.361 32.8333 293.161 29.7667 294.761 27.1C296.361 24.4333 298.595 22.4 301.461 21C304.395 19.5333 307.795 18.8 311.661 18.8C315.528 18.8 318.895 19.5333 321.761 21C324.695 22.4 326.961 24.4333 328.561 27.1C330.161 29.7667 330.961 32.8333 330.961 36.3V46.3H295.161V42.9H328.161L326.961 44.2V36.4C326.961 32.2 325.561 28.8333 322.761 26.3C319.961 23.7 316.261 22.4 311.661 22.4C307.061 22.4 303.361 23.6667 300.561 26.2C297.761 28.7333 296.361 32.1333 296.361 36.4V53.6C296.361 57.8 297.761 61.2 300.561 63.8C303.428 66.3333 307.228 67.6 311.961 67.6C316.428 67.6 320.028 66.5333 322.761 64.4C325.561 62.2 326.961 59.3333 326.961 55.8V55.4H330.961V56C330.961 58.9333 330.161 61.5667 328.561 63.9C326.961 66.2333 324.728 68.0333 321.861 69.3C318.995 70.5667 315.695 71.2 311.961 71.2Z" fill="#757575"/>
<path d="M255.46 71.2C250.126 71.2 245.793 69.6667 242.46 66.6C239.193 63.4667 237.56 59.3667 237.56 54.3V35.7C237.56 30.6333 239.193 26.5667 242.46 23.5C245.793 20.3667 250.126 18.8 255.46 18.8C259.393 18.8 262.826 19.7 265.76 21.5C268.693 23.3 270.693 25.7 271.76 28.7H273.26V36.4H272.16C272.16 34 271.493 31.7333 270.16 29.6C268.826 27.4667 266.96 25.7667 264.56 24.5C262.226 23.2333 259.526 22.6 256.46 22.6C251.993 22.6 248.393 23.8667 245.66 26.4C242.926 28.9333 241.56 32.3 241.56 36.5V53.5C241.56 57.7 242.926 61.0667 245.66 63.6C248.393 66.1333 251.993 67.4 256.46 67.4C259.526 67.4 262.226 66.7667 264.56 65.5C266.96 64.2333 268.826 62.5333 270.16 60.4C271.493 58.2667 272.16 56 272.16 53.6H273.26V61.3H271.76C270.693 64.3 268.693 66.7 265.76 68.5C262.826 70.3 259.393 71.2 255.46 71.2ZM272.16 0H276.06V70H272.16V0Z" fill="#757575"/>
<path d="M205.361 20H209.361V70H205.361V20ZM208.161 29.8H209.661C210.861 26.3333 212.928 23.6333 215.861 21.7C218.861 19.7667 222.461 18.8 226.661 18.8H228.361V22.8H226.561C223.095 22.8 220.061 23.5667 217.461 25.1C214.861 26.5667 212.861 28.5333 211.461 31C210.061 33.4 209.361 35.9333 209.361 38.6H208.161V29.8Z" fill="#757575"/>
<path d="M169.794 71.2C165.994 71.2 162.627 70.5 159.694 69.1C156.761 67.6333 154.494 65.5667 152.894 62.9C151.294 60.2333 150.494 57.1667 150.494 53.7V36.3C150.494 32.8333 151.294 29.7667 152.894 27.1C154.494 24.4333 156.761 22.4 159.694 21C162.627 19.5333 165.994 18.8 169.794 18.8C173.661 18.8 177.027 19.5333 179.894 21C182.827 22.4 185.061 24.4333 186.594 27.1C188.194 29.7667 188.994 32.8333 188.994 36.3V53.7C188.994 57.1667 188.194 60.2333 186.594 62.9C185.061 65.5667 182.827 67.6333 179.894 69.1C177.027 70.5 173.661 71.2 169.794 71.2ZM169.794 67.5C174.461 67.5 178.161 66.2333 180.894 63.7C183.694 61.1 185.094 57.7 185.094 53.5V36.5C185.094 32.3 183.694 28.9333 180.894 26.4C178.094 23.8 174.394 22.5 169.794 22.5C165.194 22.5 161.494 23.8 158.694 26.4C155.894 28.9333 154.494 32.3 154.494 36.5V53.5C154.494 57.7 155.894 61.1 158.694 63.7C161.494 66.2333 165.194 67.5 169.794 67.5Z" fill="#757575"/>
<path d="M96.2418 66.2H118.842C123.175 66.2 126.642 64.9 129.242 62.3C131.842 59.6333 133.142 56.1333 133.142 51.8C133.142 47.5333 131.842 44.1 129.242 41.5C126.642 38.8333 123.175 37.5 118.842 37.5H96.2418V33.9H116.842C121.175 33.9 124.642 32.7 127.242 30.3C129.842 27.9 131.142 24.6667 131.142 20.6C131.142 16.5333 129.808 13.2333 127.142 10.7C124.542 8.09999 121.108 6.8 116.842 6.8H96.2418V3H117.542C122.875 3 127.142 4.56666 130.342 7.7C133.608 10.8333 135.242 14.9333 135.242 20C135.242 23.8667 134.242 27.1667 132.242 29.9C130.242 32.6333 127.575 34.4 124.242 35.2V35.6C128.175 36.3333 131.308 38.2333 133.642 41.3C136.042 44.3 137.242 47.9667 137.242 52.3C137.242 57.6333 135.608 61.9333 132.342 65.2C129.142 68.4 124.875 70 119.542 70H96.2418V66.2ZM93.3418 3H97.5418V70H93.3418V3Z" fill="#757575"/>
<path d="M23.3 36.5L0.1 3H5.5L25.9 32.8H26.7L47.1 3H52.1L29.1 36.2L52.5 70H47.1L26.5 39.9H25.7L5 70H0L23.3 36.5Z" fill="#757575"/>
</svg>
